<?xml version="1.0" standalone="no"?>
<!DOCTYPE svg PUBLIC "-//W3C//DTD SVG 20010904//EN"
 "http://www.w3.org/TR/2001/REC-SVG-20010904/DTD/svg10.dtd">
<svg version="1.0" xmlns="http://www.w3.org/2000/svg"
 width="1280.000000pt" height="907.000000pt" viewBox="0 0 1280.000000 907.000000"
 preserveAspectRatio="xMidYMid meet">
<metadata>
Created by potrace 1.15, written by Peter Selinger 2001-2017
</metadata>
<g transform="translate(0.000000,907.000000) scale(0.100000,-0.100000)"
fill="#000000" stroke="none">
<path d="M2640 9064 c-134 -17 -347 -77 -486 -139 -134 -59 -258 -166 -372
-320 -58 -79 -62 -82 -282 -219 -260 -161 -400 -236 -561 -300 -122 -48 -297
-97 -414 -115 -286 -45 -323 -54 -405 -103 -56 -34 -89 -79 -112 -150 -10 -33
-9 -41 8 -59 17 -19 25 -20 79 -13 78 12 333 10 618 -5 126 -6 392 -11 592
-11 l363 0 178 -69 c451 -174 895 -360 1045 -437 204 -105 545 -454 692 -707
30 -51 98 -168 152 -262 131 -229 307 -490 402 -599 95 -109 225 -227 404
-366 181 -141 275 -225 534 -474 121 -116 258 -245 305 -286 47 -41 159 -147
250 -235 166 -160 236 -221 578 -501 101 -82 218 -177 260 -212 87 -72 179
-130 211 -135 12 -2 28 -13 36 -24 20 -29 103 -82 244 -158 66 -35 209 -117
318 -183 237 -143 405 -232 573 -303 212 -90 294 -163 321 -284 10 -43 10 -63
0 -93 -6 -20 -16 -116 -22 -212 -15 -281 -23 -333 -69 -450 -23 -58 -57 -135
-76 -172 -19 -37 -34 -78 -34 -92 0 -14 -6 -29 -14 -33 -7 -4 -41 -45 -74 -90
-66 -88 -66 -87 -160 -102 -72 -12 -132 -38 -144 -63 -4 -10 -11 -25 -16 -34
-4 -9 -25 -22 -46 -29 -69 -24 -161 -114 -139 -136 7 -7 28 -6 71 5 73 19 105
20 100 4 -10 -30 -63 -40 -270 -50 -160 -8 -253 -8 -382 2 -390 28 -892 39
-986 21 -26 -6 -52 -18 -62 -31 -22 -27 -22 -34 -1 -55 12 -12 30 -16 70 -13
29 1 53 0 53 -4 0 -12 -70 -26 -222 -43 -206 -22 -294 -56 -286 -110 3 -18 9
-20 62 -17 47 2 63 -1 80 -17 33 -31 68 -40 194 -51 117 -11 202 -38 202 -65
0 -6 -16 -30 -36 -53 -49 -58 -41 -72 40 -72 35 0 93 -8 128 -17 144 -38 870
-11 1108 42 58 13 164 31 236 40 137 17 209 32 281 59 24 9 82 19 130 22 49 4
102 13 120 21 43 20 133 117 133 143 0 12 7 28 15 36 8 9 15 24 15 35 0 23 38
40 62 28 9 -5 37 -39 61 -77 53 -79 143 -152 189 -152 53 0 118 47 118 86 0
12 -16 45 -35 73 -52 76 -51 78 63 86 199 13 438 37 514 51 267 51 536 202
594 334 6 14 35 52 64 85 l52 60 -7 65 -6 65 28 -27 c76 -71 151 -87 207 -45
17 13 43 27 57 30 64 16 36 92 -62 173 -82 67 -264 255 -283 293 -23 46 -42
184 -67 489 -8 109 -8 146 1 157 22 27 202 75 283 75 49 0 80 15 59 29 -19 12
18 21 88 21 43 1 50 3 33 10 -13 5 -23 12 -23 15 0 13 112 55 170 64 36 6 73
20 92 34 99 74 787 336 1003 382 44 10 121 19 171 22 108 7 138 -1 366 -92
153 -62 172 -67 376 -100 118 -19 242 -42 276 -51 69 -18 134 -12 168 15 45
37 33 48 -322 285 -52 35 -111 79 -130 98 -40 39 -126 105 -218 167 -35 24
-62 45 -59 47 2 3 58 -20 123 -50 159 -72 234 -91 288 -70 46 18 -17 134 -162
300 -44 50 -93 112 -109 137 -25 40 -199 241 -568 656 -105 118 -409 411 -915
882 -217 201 -258 236 -485 410 -358 276 -630 467 -940 660 -82 51 -176 112
-207 135 -32 23 -90 54 -130 70 -40 15 -170 66 -288 114 -118 48 -246 98 -285
110 -38 12 -77 28 -85 36 -30 25 -521 139 -690 160 -63 7 -214 17 -335 20
-198 6 -254 3 -565 -25 -474 -44 -685 -72 -1010 -134 -347 -66 -669 -35 -975
95 -94 39 -205 110 -247 156 -40 44 -148 221 -206 337 -21 44 -76 172 -121
284 -116 290 -180 425 -242 513 -165 237 -371 486 -458 552 -171 132 -365 194
-621 200 -80 3 -161 2 -180 0z m-50 -167 c0 -16 -41 -37 -70 -37 -24 0 -26 13
-4 34 19 20 74 21 74 3z m96 -2 c-32 -24 -84 -17 -59 8 3 4 22 7 42 7 34 -1
35 -2 17 -15z m339 -21 c65 -16 116 -42 122 -61 3 -8 -7 -8 -34 3 -21 8 -101
28 -178 44 l-140 29 85 0 c48 1 112 -6 145 -15z m187 -31 c102 -40 285 -185
402 -318 75 -87 263 -346 321 -442 34 -57 79 -172 71 -180 -4 -4 -20 22 -84
137 -34 61 -119 183 -216 310 -118 155 -250 282 -413 399 -79 57 -143 104
-143 107 0 8 20 4 62 -13z m174 -14 c9 -11 14 -22 11 -25 -8 -9 -78 36 -72 46
8 12 41 1 61 -21z m-505 -16 c6 -6 -32 -12 -108 -16 -65 -3 -127 -9 -138 -13
-16 -6 -18 -4 -8 6 31 34 226 51 254 23z m-351 -13 c0 -10 -58 -50 -72 -50
-18 0 -6 20 25 39 36 23 47 26 47 11z m-282 -22 c-3 -7 -15 -14 -29 -16 -23
-2 -23 -2 -5 13 24 18 39 20 34 3z m800 -3 c11 -11 -9 -16 -37 -10 -42 9 -41
29 1 21 17 -3 34 -8 36 -11z m-658 -3 c0 -9 -91 -65 -97 -59 -5 5 77 67 89 67
4 0 8 -3 8 -8z m835 -38 c119 -78 338 -294 454 -448 50 -66 111 -174 111 -197
0 -6 -50 55 -112 136 -133 175 -237 282 -416 428 -73 60 -132 113 -132 118 0
16 39 0 95 -37z m-376 -3 c19 -12 -17 -31 -59 -31 -46 0 -63 -13 -116 -84 -26
-36 -53 -67 -61 -70 -15 -6 -18 10 -3 19 8 5 7 11 -1 21 -10 12 -8 18 7 29 10
8 22 15 26 15 5 0 16 17 25 38 15 30 27 40 68 54 56 19 93 22 114 9z m-274
-19 c-6 -5 -30 -14 -55 -21 -25 -7 -53 -20 -62 -28 -9 -8 -27 -13 -40 -11 -22
3 -21 4 9 21 18 9 56 24 85 31 64 18 75 19 63 8z m372 -13 c57 -24 153 -80
153 -90 0 -4 -17 -1 -37 7 -21 7 -48 13 -61 14 -20 0 -129 89 -110 90 3 0 28
-9 55 -21z m230 -41 c4 -7 8 -16 8 -21 0 -4 13 -14 28 -22 87 -45 257 -222
423 -440 205 -270 367 -530 390 -627 11 -50 -10 -30 -48 45 -43 83 -238 379
-382 581 -121 169 -185 238 -296 324 -97 74 -170 142 -170 156 0 5 -10 21 -22
34 l-23 24 42 -21 c23 -11 45 -26 50 -33z m-833 17 c-31 -23 -155 -87 -160
-82 -7 7 15 22 96 66 71 38 105 47 64 16z m-214 -29 c0 -14 -29 -31 -38 -21
-6 6 18 35 29 35 5 0 9 -6 9 -14z m744 -7 c14 -7 30 -25 36 -42 16 -48 11 -55
-11 -14 -21 40 -33 44 -63 22 -11 -8 -29 -12 -42 -9 -35 9 -52 -32 -30 -75 9
-17 13 -31 10 -31 -15 0 -44 34 -44 52 0 34 31 79 63 93 40 18 50 18 81 4z
m176 -84 c0 -17 7 -28 23 -34 22 -9 22 -9 -5 -21 -16 -7 -28 -19 -28 -27 0 -7
-12 -19 -26 -25 -17 -8 -24 -18 -21 -29 6 -22 -17 -42 -61 -57 -25 -9 -53 -8
-118 4 -97 16 -121 27 -181 79 -79 67 -46 75 57 14 71 -42 128 -57 175 -45 32
8 117 85 146 132 25 40 39 43 39 9z m-1130 -15 c0 -14 -17 -21 -34 -14 -12 5
-14 10 -6 20 12 13 40 9 40 -6z m558 -56 c70 -20 132 -51 132 -65 0 -7 -7 -8
-17 -4 -57 24 -116 35 -211 41 -120 7 -152 17 -112 33 39 15 146 13 208 -5z
m397 6 c-3 -5 -15 -10 -26 -10 -10 0 -19 5 -19 10 0 6 12 10 26 10 14 0 23 -4
19 -10z m334 -19 c50 -32 128 -108 120 -116 -7 -6 -180 106 -198 128 -23 29
26 21 78 -12z m-1182 -25 c-4 -15 -379 -201 -442 -220 -65 -19 -103 -23 -107
-11 -2 5 11 16 27 24 17 9 89 48 162 89 138 77 252 128 300 134 38 5 65 -2 60
-16z m-258 -24 c-31 -24 -182 -113 -239 -142 -25 -13 -70 -40 -100 -60 -53
-36 -367 -176 -376 -168 -2 3 47 33 109 68 61 36 184 107 272 159 188 111 289
160 329 161 l29 0 -24 -18z m734 -28 c180 -58 506 -214 448 -214 -14 0 -349
121 -431 155 -30 13 -84 28 -120 34 -105 18 -160 32 -160 41 0 23 177 12 263
-16z m691 -15 c91 -54 306 -272 306 -311 0 -19 -24 -5 -88 55 -38 34 -116 98
-175 142 -59 44 -107 84 -107 88 0 5 15 6 33 2 35 -7 35 -6 -33 45 -43 33 -9
22 64 -21z m-1169 -3 c-11 -16 -13 -26 -6 -26 44 0 -44 -100 -116 -131 -55
-23 -198 -74 -235 -83 -51 -12 -29 13 42 49 38 19 98 61 133 93 60 53 186 136
195 128 2 -3 -4 -16 -13 -30z m380 -45 c44 -11 158 -49 253 -86 96 -36 208
-75 250 -86 103 -28 152 -55 269 -143 101 -76 307 -265 299 -273 -5 -5 -76 43
-266 183 -135 99 -234 154 -276 154 -19 0 -25 4 -20 15 6 17 0 20 -54 29 l-35
6 25 -24 c21 -20 224 -162 536 -374 34 -23 66 -42 71 -42 30 0 187 -198 263
-330 24 -41 70 -112 102 -157 32 -45 102 -158 154 -250 53 -92 120 -200 150
-239 87 -115 462 -471 562 -535 59 -37 40 -37 -39 1 -72 35 -148 95 -325 258
-167 153 -256 252 -320 355 -65 107 -184 282 -222 329 -16 21 -33 55 -37 75
-16 88 -140 300 -234 402 -33 36 -44 42 -63 36 -53 -16 -74 -16 -87 -1 -20 24
-7 30 23 11 15 -10 26 -13 26 -7 0 33 -430 332 -598 417 -133 66 -110 42 80
-86 84 -57 197 -137 253 -179 55 -42 119 -89 143 -103 45 -29 54 -47 24 -47
-21 0 -123 63 -187 115 -22 18 -80 57 -130 86 -49 29 -160 100 -245 157 -234
159 -300 184 -546 206 -141 13 -165 18 -150 34 13 12 326 6 391 -8 33 -7 125
-39 204 -71 79 -33 146 -57 148 -55 2 2 -10 14 -26 26 -95 67 -371 161 -463
157 -43 -1 -62 2 -74 15 -14 14 -15 20 -4 32 17 22 77 20 175 -3z m-255 -1
c-36 -11 -50 -11 -50 0 0 6 17 10 38 9 33 -1 34 -2 12 -9z m818 -62 c40 -17
100 -48 132 -70 116 -77 412 -380 493 -504 18 -27 48 -58 67 -68 35 -20 51
-46 149 -243 20 -39 41 -72 47 -72 12 -1 62 -54 91 -96 32 -47 108 -204 127
-262 10 -28 31 -71 48 -95 17 -24 153 -166 301 -315 149 -150 267 -273 263
-273 -20 0 -223 158 -314 245 -156 149 -265 293 -382 505 -35 63 -89 151 -120
195 -31 44 -81 121 -110 170 -117 197 -317 479 -379 533 -61 55 -300 229 -408
298 -65 41 -122 80 -128 85 -15 16 40 1 123 -33z m192 -16 c158 -89 441 -367
440 -431 -1 -10 -16 2 -38 29 -115 139 -250 263 -395 360 -54 36 -97 69 -97
73 0 12 38 -1 90 -31z m-1197 -48 c11 -11 -14 -49 -48 -73 -34 -23 -174 -71
-207 -71 -33 0 -18 29 28 56 51 30 193 94 210 94 6 0 13 -3 17 -6z m457 -73
c116 -40 401 -216 628 -389 68 -51 151 -111 184 -132 l60 -39 -53 6 -54 6 24
-27 c44 -47 4 -27 -56 28 -33 30 -138 105 -234 167 -502 324 -537 342 -717
361 -59 6 -118 15 -132 20 -24 10 -24 11 -5 19 11 5 81 7 155 5 106 -2 149 -8
200 -25z m-1064 -36 c-11 -8 -27 -15 -35 -15 -13 1 -12 4 3 15 11 8 27 15 35
15 13 -1 12 -4 -3 -15z m159 5 c11 -18 -14 -47 -47 -54 -38 -8 -58 7 -42 32
16 25 78 40 89 22z m835 -60 c85 -28 262 -125 380 -209 52 -38 140 -97 195
-131 112 -72 178 -120 171 -127 -9 -10 -160 71 -311 168 -159 101 -509 289
-539 289 -9 0 -16 -7 -16 -15 0 -19 -27 -19 -103 -1 -68 16 -90 31 -67 47 25
17 217 3 290 -21z m1610 -141 c33 -59 65 -121 71 -138 8 -22 16 -30 26 -27 9
4 13 1 11 -6 -9 -27 -34 -10 -78 55 -25 37 -59 82 -75 100 -33 37 -65 115 -65
155 l1 27 24 -30 c13 -16 51 -77 85 -136z m-2089 141 c52 -29 6 -54 -185 -101
-123 -30 -186 -36 -186 -20 0 11 168 95 220 110 74 21 124 25 151 11z m-781
-21 c-63 -43 -200 -83 -261 -77 -31 3 -26 6 46 30 143 48 251 72 215 47z
m2565 -36 c91 -90 214 -278 279 -428 19 -45 48 -89 72 -112 22 -21 81 -106
131 -189 141 -230 231 -346 296 -380 15 -8 27 -23 27 -33 0 -29 79 -104 172
-165 124 -80 167 -126 118 -126 -55 0 1 -43 113 -87 70 -27 148 -85 134 -99
-12 -12 -149 59 -273 142 -61 41 -116 74 -121 74 -6 0 -13 9 -16 19 -3 14 -20
22 -63 31 -104 21 -221 93 -352 215 -49 46 -55 55 -58 99 -4 60 -74 201 -173
349 -37 56 -96 151 -131 211 -34 60 -82 136 -106 169 -49 65 -52 75 -28 84 11
4 23 -3 35 -18 46 -58 108 -160 142 -233 21 -44 59 -109 86 -145 79 -107 141
-207 182 -296 28 -60 59 -104 112 -161 85 -92 208 -198 248 -216 16 -7 29 -18
29 -25 0 -16 17 -26 25 -14 9 15 -58 84 -172 178 -119 97 -153 135 -153 169 0
31 -86 197 -159 304 -32 47 -75 117 -96 155 -47 86 -111 183 -195 295 -34 47
-74 109 -87 139 -13 30 -38 73 -54 97 -39 57 -24 56 36 -3z m-1385 -30 c83
-20 192 -70 367 -171 150 -85 243 -148 243 -163 0 -13 1 -13 -112 35 -126 54
-220 106 -267 149 -25 23 -61 40 -116 56 -151 43 -292 92 -311 107 -17 14 -12
15 56 9 41 -3 104 -13 140 -22z m-326 -5 c31 -49 -99 -82 -569 -143 -264 -35
-944 -61 -959 -37 -3 5 124 19 282 31 158 13 325 29 372 37 47 8 188 21 314
29 234 16 273 22 431 74 99 33 113 34 129 9z m-1174 -7 c0 -5 -28 -14 -62 -20
-88 -14 -244 -25 -236 -16 9 10 198 42 256 44 23 0 42 -3 42 -8z m330 4 c0
-24 -35 -65 -62 -74 -45 -15 -193 -29 -373 -36 -168 -7 -181 6 -25 24 95 12
353 65 394 81 24 10 66 13 66 5z m317 -40 c8 -22 -6 -33 -17 -15 -13 20 -12
30 0 30 6 0 13 -7 17 -15z m-1027 -15 c0 -5 -12 -10 -26 -10 -14 0 -23 4 -19
10 3 6 15 10 26 10 10 0 19 -4 19 -10z m1750 -25 c44 -11 119 -48 114 -56 -2
-4 -35 3 -72 16 -94 32 -102 36 -102 47 0 5 8 7 18 4 9 -2 28 -7 42 -11z m272
-71 c150 -82 282 -160 309 -184 l24 -21 -25 7 c-69 18 -296 134 -360 183 -19
16 -45 33 -57 40 -26 13 -30 31 -8 31 8 0 61 -25 117 -56z m-2021 37 c-12 -8
-51 -4 -51 5 0 2 15 4 33 4 22 0 28 -3 18 -9z m1579 -51 c0 -21 -175 -40 -405
-44 -222 -5 -222 -3 -1 15 76 6 173 17 215 24 92 16 191 18 191 5z m399 -75
c27 -13 47 -42 37 -52 -7 -7 -96 47 -96 58 0 13 27 11 59 -6z m121 -30 c44
-22 72 -45 54 -45 -9 0 -114 60 -114 66 0 8 11 4 60 -21z m972 -162 c57 -37
77 -58 132 -141 35 -53 82 -134 105 -180 91 -187 227 -397 265 -412 12 -4 22
-17 23 -30 3 -36 79 -128 222 -267 74 -73 131 -133 125 -133 -6 0 -59 34 -117
75 -59 41 -107 71 -107 67 0 -5 5 -13 11 -19 6 -6 9 -17 7 -24 -9 -26 -198
239 -198 277 0 12 -21 50 -47 85 -93 127 -152 227 -230 389 l-79 165 -102 94
c-56 51 -102 97 -102 103 0 10 -1 11 92 -49z m735 -113 c98 -171 169 -274 235
-346 33 -35 57 -64 53 -64 -4 0 -59 47 -123 105 -63 58 -121 105 -129 105 -7
0 -13 10 -13 23 0 12 -16 51 -36 87 -46 84 -84 183 -84 218 1 26 1 26 16 7 8
-11 45 -72 81 -135z m-1052 98 c27 -12 33 -28 11 -28 -25 0 -46 12 -46 26 0
17 2 17 35 2z m328 -125 c61 -74 145 -203 237 -363 45 -80 95 -163 110 -185
16 -23 33 -59 39 -81 28 -102 266 -414 317 -414 8 0 12 -5 9 -10 -3 -6 48 -66
114 -135 108 -112 134 -145 115 -145 -13 0 -133 99 -220 182 -152 146 -304
335 -304 379 0 22 -24 60 -169 266 -121 174 -146 219 -160 296 -13 72 -25 95
-105 192 -36 44 -66 84 -66 88 0 15 42 -21 83 -70z m-535 21 c12 -8 22 -19 22
-25 0 -11 -55 15 -65 31 -10 15 18 12 43 -6z m482 -131 c48 -44 82 -93 63 -93
-7 0 -197 173 -202 183 -7 19 83 -39 139 -90z m-286 71 c25 -10 19 -26 -6 -19
-31 10 -47 25 -26 25 9 0 23 -3 32 -6z m335 -269 c12 -4 28 -2 35 4 11 9 22
-2 54 -51 21 -35 69 -102 105 -150 76 -101 113 -161 123 -203 7 -28 6 -29 -10
-16 -10 8 -80 91 -155 185 -143 177 -166 202 -204 220 -12 6 -35 36 -51 66
l-29 55 54 -51 c30 -28 65 -55 78 -59z m836 34 c91 -92 290 -230 308 -213 3 3
3 13 0 22 -5 11 -2 14 8 10 8 -3 57 -19 109 -37 52 -17 102 -36 110 -41 26
-17 -9 -31 -68 -27 -43 3 -59 10 -85 35 -34 33 -53 40 -59 21 -2 -7 -25 -7
-73 2 -75 14 -119 40 -223 134 -51 46 -72 76 -86 123 -11 34 5 27 59 -29z
m230 -40 c72 -37 175 -86 230 -109 151 -65 150 -75 -5 -41 -106 24 -160 44
-203 73 -36 24 -178 154 -161 147 5 -2 68 -34 139 -70z m-1194 -10 c86 -65
148 -131 130 -137 -10 -3 -75 54 -211 186 -35 35 -7 18 81 -49z m3736 -36
c-20 -2 -52 -2 -70 0 -17 2 0 4 38 4 39 0 53 -2 32 -4z m559 -16 c5 -4 3 -12
-5 -16 -13 -8 54 -21 110 -21 16 0 29 -4 29 -10 0 -12 1 -12 -165 0 -190 13
-365 -3 -265 -25 35 -8 40 -33 10 -60 -11 -10 -20 -22 -20 -27 0 -4 47 -8 105
-8 l105 0 -6 24 c-7 29 25 66 56 66 35 0 218 -38 241 -50 30 -17 14 -28 -61
-43 l-63 -13 80 -12 c90 -13 390 -75 469 -98 28 -8 59 -20 69 -28 17 -12 17
-14 -1 -41 -18 -27 -18 -28 4 -45 12 -10 43 -21 69 -25 68 -10 86 -21 79 -51
-8 -29 -2 -30 25 -3 17 17 28 20 57 14 52 -9 58 -19 33 -53 -31 -44 -26 -50
13 -13 39 38 79 40 84 4 3 -19 8 -21 38 -16 24 4 56 -2 102 -20 37 -13 75 -27
85 -31 21 -7 23 -36 2 -36 -8 0 -15 -5 -15 -11 0 -7 7 -8 18 -4 9 4 29 10 43
12 31 6 183 -44 271 -88 78 -39 216 -130 243 -159 l20 -23 -25 8 c-70 21 -170
86 -170 110 0 10 -9 12 -33 8 -23 -3 -54 3 -99 21 -35 14 -74 26 -86 26 -12 0
-26 9 -32 20 -6 11 -15 18 -19 15 -13 -7 -245 37 -253 49 -16 24 -17 -4 -1
-33 18 -30 17 -32 -4 -74 l-23 -42 26 30 c13 17 34 41 44 53 18 21 26 23 63
17 56 -10 77 -22 77 -45 0 -21 15 -27 25 -10 10 16 72 12 89 -6 9 -8 16 -25
17 -37 l0 -22 16 23 c19 28 33 28 33 1 0 -18 2 -19 15 -9 12 10 22 9 49 -4 19
-9 37 -16 42 -16 21 0 388 -183 413 -206 2 -2 2 -7 -2 -10 -3 -4 -60 19 -127
51 -140 65 -222 95 -259 94 -16 0 1 -9 45 -23 90 -29 136 -60 132 -90 -4 -30
-45 -32 -123 -6 -72 24 -84 34 -58 49 33 18 6 22 -36 5 -44 -17 -92 -15 -174
7 l-39 10 23 25 c14 15 18 24 9 24 -15 0 -80 -47 -80 -58 0 -4 31 -12 70 -19
38 -6 86 -19 107 -31 22 -11 63 -23 92 -27 32 -4 61 -15 73 -27 11 -11 67 -39
126 -62 197 -79 357 -171 462 -265 l45 -41 -139 66 c-163 77 -258 116 -264
109 -2 -2 12 -14 33 -26 43 -26 58 -57 50 -108 l-6 -36 22 43 c14 27 28 42 40
42 28 0 33 -22 14 -65 -20 -49 -13 -55 14 -12 12 19 27 37 35 40 16 6 257
-154 427 -285 213 -162 388 -274 414 -264 22 8 18 56 -7 83 -12 13 -19 26 -15
29 7 8 92 -49 157 -106 56 -48 47 -64 -31 -57 -90 7 -168 35 -317 114 -79 41
-145 73 -148 71 -2 -3 7 -15 21 -28 26 -25 32 -59 15 -91 -15 -26 -28 -24 -36
6 -7 29 -8 30 -38 9 -28 -18 -42 -5 -26 25 20 38 10 45 -19 13 -17 -17 -39
-32 -50 -32 -26 0 -26 -1 4 51 25 45 33 99 15 99 -6 0 -24 -23 -41 -50 -37
-61 -58 -74 -94 -60 -14 5 -35 10 -46 10 -34 0 -16 -24 32 -42 34 -12 40 -18
27 -23 -27 -11 -178 0 -178 13 0 3 12 20 26 39 28 37 25 56 -4 30 -10 -10 -26
-17 -34 -17 -20 0 -161 104 -207 153 l-34 36 22 27 c30 39 19 41 -18 3 -44
-43 -60 -27 -31 31 12 23 20 51 18 63 -3 19 -7 15 -26 -21 -13 -24 -29 -45
-37 -49 -26 -9 -284 152 -324 203 -10 13 -29 24 -41 24 -12 0 -85 29 -163 65
-77 36 -142 63 -144 61 -2 -2 53 -34 124 -70 157 -82 171 -95 154 -133 l-13
-28 26 24 c28 26 56 23 56 -7 0 -10 -14 -31 -30 -47 l-30 -29 -51 16 c-43 14
-50 14 -45 2 3 -8 1 -14 -5 -14 -5 0 -13 10 -18 23 -20 51 -754 424 -1036 526
-55 20 -99 41 -98 46 5 32 -56 61 -321 151 -181 62 -251 93 -178 78 18 -4 32
-4 32 -1 0 7 -83 34 -130 42 -34 6 -34 5 -15 -10 19 -16 13 -16 -90 -11 -60 4
-214 11 -342 16 -289 12 -316 16 -653 100 -322 81 -428 111 -490 139 l-45 21
65 -6 c194 -16 331 -51 415 -106 l50 -33 155 -2 155 -2 -84 24 c-47 13 -89 29
-95 35 -17 17 55 12 149 -10 47 -11 89 -20 93 -20 12 1 -42 40 -55 40 -18 0
-16 11 5 26 15 11 10 16 -52 44 -37 17 -66 33 -64 36 3 2 46 -4 96 -15 92 -18
110 -17 72 7 -11 7 -20 19 -20 27 0 24 69 93 105 106 29 11 33 16 29 39 -8 36
48 85 108 95 65 11 68 18 14 30 -57 12 -74 35 -27 35 16 0 42 5 58 11 15 6 96
17 178 25 83 8 175 19 205 24 68 10 455 8 466 -3z m-956 -26 c0 -16 -20 -24
-60 -24 -42 0 -63 10 -55 24 8 12 115 12 115 0z m-281 -41 c-28 -16 -343 -64
-364 -56 -17 7 -15 11 21 27 51 23 143 36 264 37 65 1 90 -2 79 -8z m1653 -15
c201 -40 304 -73 193 -61 -28 3 -97 10 -155 16 -184 19 -277 40 -265 60 10 17
97 11 227 -15z m-555 -12 c8 -22 -31 -53 -68 -53 -49 0 -46 27 6 54 38 20 54
20 62 -1z m-959 -30 c-10 -2 -26 -2 -35 0 -10 3 -2 5 17 5 19 0 27 -2 18 -5z
m-3014 -42 c61 -42 138 -129 179 -203 19 -35 34 -64 32 -66 -4 -4 -72 69 -160
173 -38 44 -78 90 -89 103 -27 30 -13 28 38 -7z m1001 16 c-24 -18 -8 -28 53
-31 58 -3 174 -53 153 -65 -21 -13 12 -27 140 -61 128 -33 261 -83 238 -88
-21 -4 -219 40 -350 78 -108 31 -179 66 -239 118 -33 27 -38 37 -29 48 6 8 21
14 32 14 20 0 20 -1 2 -13z m2095 4 c0 -13 -59 -61 -76 -61 -21 0 -17 9 17 41
30 28 59 38 59 20z m-956 -10 c6 -10 -37 -31 -64 -31 -31 0 -24 28 8 33 48 7
51 7 56 -2z m2471 -37 c239 -60 414 -113 575 -176 199 -77 320 -119 320 -109
0 21 -289 132 -672 257 -98 32 -175 60 -173 62 16 16 312 -67 549 -154 183
-67 447 -195 490 -238 17 -17 63 -49 101 -70 81 -45 80 -44 73 -51 -8 -8 -118
33 -418 155 -146 60 -285 114 -310 121 -25 7 -54 20 -65 29 -11 10 -38 21 -60
24 -22 4 -139 34 -260 66 -121 33 -256 67 -299 77 -77 17 -106 37 -69 46 26 6
62 -1 218 -39z m299 16 c13 -13 -2 -13 -43 1 -17 6 -31 15 -31 19 0 11 60 -6
74 -20z m-2104 16 c0 -10 -130 -46 -186 -52 -64 -7 -224 20 -224 38 0 5 3 7 8
5 4 -2 61 -1 127 3 148 9 275 11 275 6z m-471 -37 c49 -17 36 -26 -26 -18 -32
4 -68 8 -80 8 -13 1 -23 6 -23 11 0 13 89 13 129 -1z m-513 -11 c-27 -15 -152
-16 -167 0 -10 10 7 12 87 12 77 -1 95 -3 80 -12z m-229 -47 c43 -18 75 -20
315 -23 183 -2 271 -7 278 -14 30 -30 -531 -30 -635 0 -67 19 -122 43 -131 57
-11 19 116 4 173 -20z m1373 16 c35 -18 33 -43 -3 -40 -37 3 -117 33 -117 44
0 14 92 10 120 -4z m-2948 -62 c9 -16 6 -16 -17 5 -15 14 -32 34 -37 45 -9 16
-6 16 17 -5 15 -14 32 -34 37 -45z m2807 4 c145 -20 163 -52 21 -38 -41 4
-193 11 -337 15 -206 6 -260 10 -256 20 2 7 14 15 26 18 35 8 465 -4 546 -15z
m-1854 -107 c69 -35 124 -81 139 -114 7 -18 32 -54 56 -80 23 -27 38 -48 34
-48 -17 0 -373 277 -374 292 0 9 94 -23 145 -50z m900 48 c120 -12 207 -29
200 -39 -2 -4 -52 -11 -111 -14 -111 -7 -151 2 -216 47 l-22 16 24 0 c14 0 70
-5 125 -10z m3218 -44 c146 -47 321 -119 357 -146 13 -10 20 -22 16 -29 -13
-20 -57 -12 -147 29 -49 22 -93 40 -98 40 -4 0 -20 9 -34 21 -15 11 -54 24
-89 30 -107 17 -235 49 -254 65 -18 14 -18 14 1 30 28 22 87 12 248 -40z
m-2880 27 c-7 -2 -21 -2 -30 0 -10 3 -4 5 12 5 17 0 24 -2 18 -5z m350 -4 c69
-11 173 -43 191 -59 4 -5 -25 -6 -65 -4 -73 5 -170 31 -219 59 l-25 14 23 1
c13 0 56 -5 95 -11z m-2277 -41 c23 -24 82 -96 133 -160 50 -64 100 -120 111
-123 10 -3 45 -36 78 -73 92 -105 272 -321 272 -327 0 -2 -22 9 -49 25 -70 43
-167 151 -231 255 -37 61 -56 84 -58 72 -2 -10 3 -26 12 -36 27 -29 20 -39
-18 -27 -22 6 -32 15 -29 24 3 7 -10 30 -30 50 -19 20 -65 84 -102 142 -37 58
-85 131 -106 163 -21 31 -35 57 -31 57 5 0 26 -19 48 -42z m1154 -9 c0 -12 16
-37 36 -55 41 -39 31 -43 -29 -13 -104 54 -125 89 -52 89 39 0 45 -3 45 -21z
m626 -49 l69 -18 -71 -1 c-76 -1 -179 23 -168 40 8 13 75 5 170 -21z m-1798
-79 c106 -141 217 -331 192 -331 -11 0 -146 166 -185 230 -23 37 -85 173 -85
187 0 12 25 -15 78 -86z m1513 63 c112 -23 219 -70 219 -96 0 -32 -216 24
-353 91 l-62 31 65 -6 c36 -3 95 -12 131 -20z m-1621 -52 c0 -13 -3 -12 -15 4
-19 25 -19 40 0 24 8 -7 15 -20 15 -28z m2515 -63 c285 -69 288 -70 177 -64
-51 3 -141 16 -200 29 -59 13 -128 27 -153 30 -39 6 -169 58 -169 69 0 10 157
-19 345 -64z m-315 -19 c135 -32 278 -71 319 -84 109 -38 151 -40 271 -17 58
12 164 26 237 32 116 9 152 8 295 -11 90 -11 189 -25 220 -31 103 -18 576
-174 564 -186 -2 -2 -36 4 -75 13 -40 9 -75 14 -78 11 -12 -12 11 -27 65 -42
163 -45 273 -84 427 -152 94 -41 183 -82 198 -90 55 -28 20 -23 -82 13 -95 33
-141 37 -141 13 0 -5 11 -9 23 -9 37 0 256 -89 314 -127 46 -30 58 -34 92 -28
32 5 50 1 99 -24 75 -38 88 -55 35 -45 -33 6 -36 5 -23 -8 8 -8 46 -25 83 -37
81 -25 261 -110 300 -141 19 -15 26 -28 22 -41 -5 -14 -1 -19 12 -19 21 0 156
-80 237 -139 33 -24 53 -47 52 -58 0 -9 7 -19 16 -21 13 -3 16 1 11 13 -5 15
-3 16 15 6 12 -7 22 -21 22 -32 0 -16 4 -19 16 -15 11 4 22 -1 30 -13 8 -11
65 -58 127 -104 61 -47 175 -143 253 -214 77 -70 166 -149 197 -176 51 -43
177 -187 177 -201 0 -4 -11 1 -25 10 -14 9 -25 13 -25 8 0 -4 38 -64 84 -133
84 -126 125 -213 146 -306 6 -28 13 -58 16 -67 11 -36 -12 -16 -53 45 -53 77
-85 150 -77 171 19 48 -120 236 -272 368 -160 139 -441 314 -556 346 -61 17
-44 -3 42 -47 84 -44 93 -57 69 -104 -9 -16 -3 -14 23 11 35 33 35 33 59 14
13 -11 42 -28 64 -40 119 -60 395 -296 395 -336 0 -23 -4 -21 -65 29 -63 51
-114 80 -123 70 -4 -4 2 -13 13 -21 60 -44 85 -76 85 -111 0 -27 3 -34 15 -29
8 3 22 9 31 12 13 6 12 -1 -5 -35 -12 -22 -24 -41 -28 -41 -3 0 -28 14 -55 31
-27 17 -52 28 -56 24 -4 -4 4 -14 18 -23 14 -9 56 -46 94 -83 71 -71 76 -82
51 -144 -8 -19 -6 -18 17 3 23 21 48 29 48 16 0 -4 -10 -23 -22 -43 l-23 -36
29 22 c21 17 33 20 46 13 22 -12 60 -71 60 -94 0 -9 7 -16 15 -16 8 0 15 -5
15 -10 0 -17 -39 -50 -60 -50 -36 0 -26 -44 15 -63 66 -31 144 -168 110 -193
-12 -9 -11 -14 7 -32 18 -18 19 -23 8 -37 -7 -9 -27 -23 -43 -31 -19 -10 -27
-21 -23 -30 15 -39 -106 -104 -193 -104 -39 0 -39 11 -2 52 l29 33 39 -18 c37
-18 37 -18 20 0 -17 17 -16 19 15 45 l33 27 -50 21 c-145 63 -179 81 -166 90
9 5 -6 10 -45 15 -83 9 -100 18 -133 72 -16 26 -29 49 -27 50 4 5 227 -49 261
-63 19 -8 35 -19 35 -25 0 -5 4 -7 10 -4 5 3 46 -10 90 -29 44 -19 80 -30 80
-25 0 4 -33 27 -74 49 -89 49 -101 61 -87 89 21 39 10 44 -24 11 l-35 -34 -88
18 c-48 11 -109 23 -136 27 -80 13 -157 100 -136 154 6 15 7 37 4 51 -5 19
-13 24 -36 24 -20 0 -48 13 -79 37 -27 20 -49 39 -49 41 0 2 21 27 46 55 45
51 90 124 80 134 -2 3 -11 -8 -20 -24 -28 -55 -96 -133 -122 -139 -24 -6 -23
-9 46 -77 73 -73 88 -104 22 -49 -20 18 -52 40 -69 49 -28 14 -36 15 -60 3
l-28 -13 29 -6 c36 -7 56 -35 39 -52 -15 -15 -47 10 -69 54 -18 34 -12 47 19
40 20 -5 21 -4 6 11 -8 9 -62 34 -119 56 -102 39 -156 70 -97 56 37 -9 35 8
-3 24 -26 11 -33 10 -43 -3 -8 -10 -36 -16 -95 -19 -45 -3 -88 -10 -94 -16 -9
-9 -3 -12 25 -12 80 0 291 -91 362 -156 22 -21 32 -34 22 -31 -31 11 -260 56
-314 61 -89 9 -59 -8 50 -28 140 -25 252 -61 274 -89 10 -13 26 -21 36 -19 25
5 79 -34 157 -114 70 -71 64 -77 -33 -28 -27 13 -57 24 -68 24 -10 0 -28 9
-39 20 -12 12 -24 19 -28 16 -5 -3 -57 6 -118 19 -184 41 -180 30 15 -34 145
-48 226 -89 272 -138 l34 -35 -100 5 c-55 3 -135 15 -179 27 -83 22 -107 21
-59 -3 39 -20 102 -34 208 -47 98 -12 155 -33 198 -73 59 -56 17 -65 -45 -9
-30 26 -39 31 -34 17 4 -11 8 -24 9 -29 4 -19 -74 -28 -211 -24 -79 2 -135 0
-125 -4 10 -4 61 -25 112 -47 102 -43 128 -47 62 -9 -22 13 -41 27 -41 32 0
13 199 -1 216 -15 8 -6 14 -24 14 -39 0 -32 -24 -40 -117 -40 -68 0 -61 -16
11 -25 59 -8 178 9 234 32 42 17 77 10 46 -11 -48 -32 -236 -86 -301 -86 -21
0 -92 16 -158 35 -65 19 -124 34 -130 31 -5 -2 31 -23 80 -47 103 -50 117 -72
58 -88 -47 -13 -123 -14 -142 -2 -12 8 -13 14 -2 37 l12 27 -32 -25 c-18 -13
-35 -30 -37 -36 -4 -13 59 -32 110 -32 54 0 254 36 328 59 90 29 174 39 168
20 -11 -33 -195 -100 -234 -85 -17 7 -19 -10 -1 -17 9 -4 8 -8 -3 -17 -34 -26
-452 14 -534 51 -30 14 -33 34 -8 62 13 16 14 19 2 15 -8 -2 -30 -24 -48 -48
l-34 -44 84 -17 c107 -23 208 -54 233 -73 19 -15 19 -15 -10 -17 -16 -1 -53
-1 -81 1 -29 1 -55 -3 -58 -9 -5 -7 -49 -11 -118 -11 -101 0 -110 2 -115 20
-7 25 -9 25 -40 0 -20 -15 -41 -20 -91 -20 -75 0 -75 -6 0 -25 l53 -13 -92 -1
c-51 -1 -93 3 -93 8 0 5 23 38 52 73 l52 63 -50 -46 c-55 -50 -80 -67 -128
-80 -53 -15 -120 20 -100 52 8 14 -4 11 -31 -7 -33 -22 -31 -6 5 44 42 59 23
52 -25 -8 -45 -56 -49 -57 -150 -19 -33 12 -71 34 -85 49 -24 25 -27 26 -48
12 -29 -19 -56 0 -49 35 4 19 1 23 -12 17 -9 -4 -30 -9 -48 -12 -44 -6 -88 36
-79 76 6 26 6 26 -9 8 -32 -41 -10 -74 81 -119 88 -44 95 -79 12 -56 -49 13
-134 54 -143 69 -4 6 -10 8 -15 5 -4 -3 -40 9 -79 25 -40 17 -77 28 -82 24
-12 -7 -8 72 6 116 8 24 7 24 -18 -5 -23 -27 -28 -29 -47 -17 -33 20 -35 8 -7
-42 14 -26 22 -46 18 -46 -5 0 -42 24 -82 54 -41 30 -81 55 -89 56 -26 4 -40
0 -40 -10 0 -5 7 -7 15 -4 11 5 13 2 9 -10 -3 -9 -1 -16 5 -16 6 0 11 -7 11
-15 0 -8 -4 -15 -9 -15 -16 0 -129 97 -232 200 -101 99 -119 131 -119 210 l0
35 93 -91 c123 -121 151 -139 52 -34 -105 112 -187 214 -264 328 -35 52 -65
91 -68 89 -2 -3 29 -59 71 -124 41 -66 80 -131 85 -146 21 -55 1 -137 -24 -97
-3 5 -11 10 -16 10 -15 0 18 -44 118 -156 49 -54 126 -146 172 -204 46 -58
119 -141 162 -185 98 -100 133 -175 82 -175 -22 0 -148 130 -172 178 -11 21
-56 78 -100 127 -45 48 -81 94 -81 101 0 7 -8 18 -19 23 -10 6 -58 62 -107
125 -60 78 -91 111 -94 100 -4 -12 -11 -9 -32 13 -42 45 -78 104 -78 128 0 13
9 42 20 66 11 24 19 62 19 84 -1 22 -3 32 -6 22 -9 -34 -38 -12 -70 52 -25 49
-33 77 -33 118 0 60 -12 68 -36 21 -16 -31 -17 -31 -31 -12 -9 10 -29 48 -45
84 -40 88 -43 93 -55 97 -13 5 -23 -30 -23 -84 0 -41 13 -58 23 -30 8 23 40
-7 99 -94 32 -46 78 -112 103 -146 42 -57 58 -103 36 -103 -5 0 -19 12 -30 28
-18 24 -20 25 -20 7 0 -11 6 -31 14 -45 45 -78 -28 -20 -121 97 -42 52 -78 92
-81 89 -3 -3 0 -12 7 -21 7 -9 11 -18 8 -20 -7 -7 -98 92 -98 107 0 6 16 -3
35 -22 51 -50 43 -27 -19 49 -29 36 -79 101 -110 144 -31 42 -59 77 -62 77 -7
0 0 -12 58 -96 51 -74 64 -112 28 -79 -11 10 -20 14 -20 9 0 -21 113 -157 230
-279 130 -134 220 -237 220 -249 0 -4 -33 20 -72 52 -85 69 -238 224 -238 240
0 6 -6 9 -12 7 -25 -10 -78 35 -148 127 -94 122 -196 275 -225 341 -24 55
-103 162 -112 153 -3 -3 0 -35 7 -72 9 -46 39 -120 101 -245 49 -98 89 -186
89 -194 0 -8 32 -56 70 -107 39 -51 70 -97 70 -102 0 -18 -70 57 -186 198
-246 301 -330 468 -425 846 -19 74 -35 127 -37 118 -5 -28 43 -235 104 -447
13 -46 24 -94 24 -107 0 -15 6 -24 15 -24 11 0 14 -7 9 -25 -5 -20 -3 -24 10
-19 17 6 24 -20 8 -30 -24 -14 -62 56 -62 114 0 30 -4 40 -16 40 -11 0 -14 6
-9 20 5 14 2 20 -10 20 -12 0 -15 5 -10 22 6 17 4 20 -9 15 -12 -5 -16 0 -16
21 -1 36 -37 115 -50 107 -6 -4 -7 6 -3 26 4 23 2 35 -10 44 -27 20 -42 143
-29 233 7 42 12 95 12 118 0 23 5 54 10 70 8 23 7 40 -4 72 -14 40 -8 61 14
47 19 -12 10 34 -17 89 -28 57 -26 80 4 54 36 -30 43 -29 23 4 -12 21 -20 50
-20 80 0 44 -3 48 -33 63 -29 13 -110 85 -96 85 2 0 26 -11 53 -25 27 -14 57
-25 67 -25 10 0 22 -8 27 -17 9 -15 13 -12 31 18 11 19 21 51 21 71 0 29 3 36
15 32 11 -5 15 3 15 33 1 21 2 50 2 65 1 18 -12 44 -37 73 -20 25 -35 48 -32
51 2 3 39 -9 82 -26 148 -59 94 -11 -121 107 -89 48 -172 96 -185 105 l-24 17
45 0 c60 1 111 -24 190 -91 36 -31 94 -74 130 -95 l65 -40 -2 -54 -2 -54 29
55 c35 66 37 80 10 73 -14 -4 -20 0 -20 11 0 10 -23 42 -51 72 -58 60 -53 65
38 42 36 -9 53 -8 81 2 45 16 180 95 208 121 l22 20 -27 29 c-36 39 -112 72
-266 115 -278 78 -438 133 -390 134 10 1 130 -26 265 -59z m3179 47 c6 -8 30
-19 53 -26 98 -28 116 -41 79 -60 -14 -8 -38 -4 -94 15 -89 30 -111 49 -82 70
23 17 30 17 44 1z m-3866 -49 c57 -31 78 -56 35 -42 -34 10 -158 73 -158 80 0
12 67 -9 123 -38z m-874 -74 c56 -53 99 -99 96 -102 -3 -3 -18 7 -33 21 -16
15 -34 27 -40 27 -15 0 -106 83 -134 122 -41 59 10 27 111 -68z m1165 25 c49
-21 220 -127 224 -139 11 -33 -153 26 -199 72 -14 14 -53 40 -87 59 -34 19
-62 37 -62 41 0 7 83 -15 124 -33z m-345 -86 c66 -18 75 -11 24 17 l-38 21 35
-6 c19 -3 50 -17 70 -30 58 -42 115 -93 109 -99 -3 -3 -34 5 -70 18 -35 13
-106 36 -158 50 -91 26 -251 100 -251 117 0 4 51 -10 113 -33 61 -22 136 -47
166 -55z m609 67 c43 -16 87 -37 98 -46 18 -14 16 -15 -26 -9 -47 6 -130 41
-165 69 -18 14 -18 15 -2 16 10 0 53 -13 95 -30z m3548 5 c28 -8 86 -36 130
-63 44 -27 93 -53 110 -59 47 -16 234 -132 234 -145 0 -12 -67 20 -307 145
-205 107 -255 137 -225 137 5 0 31 -7 58 -15z m-4456 -100 c30 -30 52 -55 49
-55 -2 0 -29 25 -59 55 -30 30 -52 55 -49 55 2 0 29 -25 59 -55z m1211 19 c8
-8 39 -18 67 -24 56 -10 112 -35 112 -49 0 -5 -9 -11 -21 -14 -15 -4 -19 -2
-15 9 5 12 -1 14 -29 8 -41 -7 -100 18 -160 71 l-40 35 35 -12 c19 -6 42 -17
51 -24z m-537 -34 c126 -33 131 -39 36 -39 -87 -1 -138 14 -185 53 -19 16 -18
17 29 11 26 -4 81 -15 120 -25z m438 -28 c54 -24 69 -42 35 -42 -30 0 -149 59
-142 70 6 10 44 0 107 -28z m-1470 -38 c60 -35 148 -110 148 -126 0 -15 -25
-7 -61 20 -48 36 -164 142 -156 142 3 0 34 -16 69 -36z m597 14 c50 -30 81
-59 81 -76 0 -12 -40 16 -124 90 -19 16 7 8 43 -14z m285 -72 c28 -13 60 -31
71 -41 19 -16 19 -16 -19 -11 -22 3 -76 24 -120 46 l-81 40 49 -5 c27 -3 72
-16 100 -29z m723 1 c14 -14 -8 -37 -36 -37 -36 0 -82 35 -63 48 13 9 87 0 99
-11z m-1875 -161 c21 -33 36 -62 33 -65 -17 -17 -185 190 -185 228 1 22 103
-88 152 -163z m824 141 c45 -19 84 -48 84 -62 0 -7 17 -15 38 -19 43 -6 92
-40 92 -62 0 -11 -7 -13 -27 -8 -36 9 -150 52 -177 66 -20 11 -20 12 7 23 l29
12 -39 18 c-21 10 -47 24 -58 31 -19 14 -19 14 2 14 11 0 34 -6 49 -13z m483
-8 c18 -11 31 -22 29 -25 -7 -6 -54 12 -81 31 -21 14 -21 15 -2 15 11 0 35 -9
54 -21z m4216 -26 c45 -28 61 -48 28 -36 -21 8 -93 54 -93 59 0 10 23 1 65
-23z m-4469 -20 c31 -21 51 -39 45 -41 -9 -3 -111 66 -111 75 0 8 15 0 66 -34z
m-478 -17 c49 -25 146 -105 138 -113 -4 -5 -128 67 -201 117 -28 19 -29 20 -7
20 12 0 44 -11 70 -24z m4797 -46 c33 -21 86 -50 118 -64 98 -43 262 -165 244
-182 -6 -6 -370 183 -449 233 -41 25 -45 32 -26 51 16 16 41 8 113 -38z
m-5057 -25 c52 -47 69 -75 34 -56 -28 15 -122 102 -122 112 0 15 31 -5 88 -56z
m1122 13 c84 -36 112 -80 30 -48 -76 30 -130 59 -130 70 0 13 40 4 100 -22z
m-663 -6 c7 -8 21 -12 33 -9 16 4 20 2 16 -8 -7 -20 14 -38 89 -81 61 -33 87
-54 68 -54 -36 1 -253 147 -253 170 0 13 32 1 47 -18z m398 15 c37 -28 -12
-50 -57 -26 -21 11 -21 12 -3 25 24 17 36 18 60 1z m4388 -23 c63 -32 163
-102 196 -138 24 -25 24 -26 4 -26 -11 0 -26 7 -33 15 -6 8 -59 46 -115 85
-134 91 -153 115 -52 64z m329 -145 c165 -110 188 -123 188 -111 0 5 -33 34
-72 65 -62 48 -191 170 -148 141 34 -24 420 -337 426 -345 9 -15 -13 -10 -26
6 -7 8 -24 15 -39 15 -57 1 -197 87 -418 256 -204 157 -173 148 89 -27z
m-5627 31 c27 -27 45 -50 40 -50 -14 0 -105 79 -105 91 0 18 17 8 65 -41z
m1110 30 c18 -15 20 -40 3 -40 -14 0 -98 49 -98 57 0 10 80 -5 95 -17z m-830
-54 c20 -15 20 -15 -1 -16 -11 0 -38 16 -60 35 l-39 36 40 -20 c22 -11 49 -26
60 -35z m195 -6 c33 -23 60 -42 60 -45 0 -2 3 -10 6 -19 10 -26 -17 -19 -71
18 -60 40 -105 81 -105 95 0 16 43 -3 110 -49z m-732 -3 c23 -23 42 -52 42
-62 -1 -17 -6 -14 -31 15 -79 91 -86 124 -11 47z m1256 -23 c19 -18 21 -54 4
-54 -7 1 -42 16 -78 35 l-65 35 62 0 c43 0 66 -5 77 -16z m-141 -64 c110 -44
200 -89 179 -90 -39 -1 -292 104 -292 122 0 12 3 11 113 -32z m4757 -8 c-12
-4 -50 26 -50 40 0 5 14 -2 31 -14 16 -12 25 -24 19 -26z m-5147 -15 c16 -11
26 -21 23 -24 -5 -6 -93 45 -102 58 -7 12 43 -10 79 -34z m5093 -5 c45 -33 71
-62 56 -62 -11 0 -112 77 -112 85 0 11 20 3 56 -23z m-5270 -64 c59 -32 104
-71 104 -89 0 -6 -16 3 -35 20 -20 17 -44 31 -53 31 -23 0 -112 56 -112 70 0
15 33 4 96 -32z m493 -13 c84 -22 161 -56 161 -71 0 -25 -205 44 -225 76 -8
13 -1 13 64 -5z m-207 -21 c33 -17 98 -80 98 -95 0 -16 -79 32 -129 79 -38 36
-42 42 -21 36 14 -3 37 -13 52 -20z m5133 -5 c19 -17 35 -38 35 -46 0 -8 14
-27 32 -43 17 -16 29 -33 25 -36 -8 -8 -147 131 -147 146 0 18 18 11 55 -21z
m-835 -97 c120 -77 294 -208 365 -274 48 -46 58 -59 47 -69 -17 -18 -127 2
-195 35 -29 13 -65 30 -82 36 -45 17 -181 98 -197 118 -12 15 28 -5 152 -76
36 -21 42 -22 30 -7 -32 40 -278 185 -315 185 -8 0 -15 9 -15 19 0 11 -5 23
-11 26 -11 7 8 42 44 82 l20 23 36 -22 c20 -12 74 -46 121 -76z m-3812 41 c5
-18 -20 -16 -44 2 -18 15 -18 15 10 13 16 -2 31 -9 34 -15z m138 -9 c24 -35 6
-52 -30 -29 -15 10 -31 26 -37 36 -8 17 -6 19 20 19 22 0 35 -8 47 -26z m4742
-6 c71 -48 194 -150 188 -155 -8 -8 -135 80 -196 136 -63 57 -60 65 8 19z
m-5545 -71 c60 -52 96 -98 60 -79 -28 16 -143 122 -143 133 0 14 16 4 83 -54z
m5697 10 c0 -6 -9 -2 -20 8 -11 10 -20 23 -20 28 0 6 9 2 20 -8 11 -10 20 -23
20 -28z m-5260 8 c19 -14 28 -25 21 -25 -19 0 -71 29 -71 40 0 16 14 12 50
-15z m195 -6 c11 -17 0 -20 -21 -4 -17 13 -17 14 -2 15 9 0 20 -5 23 -11z
m5283 -175 c169 -162 244 -252 106 -127 -111 101 -291 283 -279 283 6 0 83
-70 173 -156z m-5255 100 c110 -55 127 -69 126 -103 -1 -62 -11 -65 -59 -15
l-45 47 30 -7 c29 -6 29 -6 10 9 -11 9 -45 30 -75 46 -65 35 -110 68 -92 69 7
0 54 -21 105 -46z m4863 32 c10 -8 16 -17 13 -20 -9 -9 -59 11 -59 24 0 14 23
12 46 -4z m-5620 -41 c21 -19 34 -34 28 -35 -12 0 -94 57 -94 65 0 15 32 1 66
-30z m579 -15 c54 -26 145 -103 134 -114 -5 -5 -218 119 -239 140 -13 14 -12
15 15 9 17 -4 57 -20 90 -35z m5080 -79 c-7 -6 -75 60 -75 73 0 6 18 -7 40
-29 22 -21 37 -41 35 -44z m-5227 39 c17 -11 32 -24 32 -30 0 -15 -3 -13 -45
20 -43 34 -36 40 13 10z m-162 -38 c-8 -7 -25 8 -37 31 -11 21 -10 21 15 -2
14 -14 24 -26 22 -29z m5697 -55 c16 -10 26 -21 24 -24 -5 -5 -87 44 -87 52 0
7 33 -7 63 -28z m-5558 -52 c38 -22 127 -105 112 -105 -7 0 -174 115 -192 133
-17 16 36 -3 80 -28z m485 -13 c13 -11 21 -26 18 -37 -3 -19 -5 -18 -31 7 -43
43 -32 67 13 30z m4732 -39 c16 -20 -9 -16 -59 8 -42 20 -50 29 -37 42 8 7 79
-30 96 -50z m439 -21 c46 -30 89 -72 73 -72 -13 0 -134 83 -134 92 0 14 15 9
61 -20z m-5434 3 c3 -9 3 -19 -1 -22 -7 -7 -36 16 -36 28 0 15 30 10 37 -6z
m4747 -46 c55 -28 106 -55 111 -59 6 -5 75 -35 155 -68 195 -81 348 -153 333
-159 -12 -4 -26 1 -420 160 -258 104 -344 132 -329 108 4 -6 58 -37 119 -67
124 -62 197 -105 197 -116 0 -17 -44 -6 -108 26 -37 18 -85 39 -107 46 -22 7
-76 30 -120 50 -133 63 -170 105 -82 94 30 -3 54 1 82 15 22 11 46 20 54 20 7
1 59 -22 115 -50z m-466 8 c5 -24 -15 -21 -28 4 -10 18 -9 20 7 17 10 -2 19
-11 21 -21z m633 -7 c25 -14 24 -30 -2 -30 -28 0 -61 19 -54 31 8 12 32 12 56
-1z m133 -21 c31 -15 38 -32 22 -55 -12 -16 -18 -16 -54 -6 -45 14 -67 35 -58
57 6 18 54 20 90 4z m-665 -36 c12 -14 19 -28 16 -31 -3 -3 -12 4 -21 16 -8
12 -24 22 -35 22 -10 0 -19 5 -19 10 0 20 39 9 59 -17z m-4469 -19 c0 -17 -22
-14 -28 4 -2 7 3 12 12 12 9 0 16 -7 16 -16z m5213 4 c6 -19 -3 -38 -19 -38
-8 0 -14 10 -14 25 0 26 25 35 33 13z m120 -44 c26 -17 37 -31 37 -49 0 -28
-12 -32 -29 -12 -6 8 -29 19 -51 26 -40 12 -67 42 -54 62 9 15 51 3 97 -27z
m-704 -48 c19 -20 31 -36 27 -36 -11 0 -116 92 -116 103 0 12 48 -24 89 -67z
m-4771 46 c3 -9 -2 -13 -14 -10 -9 1 -19 9 -22 16 -3 9 2 13 14 10 9 -1 19 -9
22 -16z m5952 -40 c-15 -5 -40 25 -40 47 1 11 9 7 27 -14 18 -20 22 -30 13
-33z m-940 -119 c9 -9 -4 -6 -35 7 -51 21 -145 93 -145 112 0 9 147 -88 180
-119z m726 52 c87 -36 166 -65 175 -65 17 0 59 -36 59 -50 0 -9 -61 9 -99 30
-12 6 -47 15 -78 21 -64 12 -230 86 -252 112 -26 33 31 19 195 -48z m-537 11
c6 -7 26 -16 44 -19 52 -9 127 -45 127 -62 0 -20 2 -20 -89 15 -75 29 -144 80
-109 80 9 0 21 -6 27 -14z m-260 -100 c43 -45 16 -38 -35 9 -41 38 -44 43 -19
31 17 -8 41 -26 54 -40z m-4532 22 c13 -12 23 -31 23 -42 -1 -19 -4 -17 -30
12 -45 48 -39 73 7 30z m4849 -39 c94 -42 122 -66 62 -54 -73 15 -105 26 -137
47 -19 13 -44 29 -55 35 -20 12 -20 13 7 13 16 0 71 -19 123 -41z m172 29 c-6
-18 -28 -21 -28 -4 0 9 7 16 16 16 9 0 14 -5 12 -12z m146 -58 c108 -42 146
-64 134 -76 -13 -13 -248 87 -248 105 0 15 1 15 114 -29z m182 21 c45 -21 65
-41 39 -41 -17 0 -115 47 -115 55 0 11 37 4 76 -14z m-618 -45 c80 -40 103
-62 77 -72 -29 -12 -165 68 -165 97 0 15 18 10 88 -25z m778 -19 c26 -15 27
-16 7 -17 -25 0 -93 30 -93 41 0 10 48 -4 86 -24z m-465 -9 c21 -11 36 -24 34
-28 -8 -13 -51 1 -81 26 -24 19 -26 23 -10 24 10 0 36 -10 57 -22z m-4825 -55
c-11 -11 -19 6 -11 24 8 17 8 17 12 0 3 -10 2 -21 -1 -24z m5204 7 c86 -27
111 -44 50 -35 -45 6 -150 48 -150 60 0 4 8 4 18 1 9 -3 46 -15 82 -26z m215
4 c29 -24 29 -25 5 -18 -25 7 -70 33 -70 40 0 13 40 0 65 -22z m-727 -19 c31
-26 52 -32 52 -15 0 16 37 11 56 -7 9 -10 24 -18 32 -18 9 0 17 -6 19 -12 6
-17 -26 -28 -40 -14 -6 6 -31 11 -54 11 -56 0 -123 33 -123 60 0 27 22 25 58
-5z m325 -7 c48 -21 61 -38 30 -38 -28 0 -153 51 -153 62 0 14 63 2 123 -24z
m545 1 c45 -33 49 -39 29 -39 -16 0 -97 69 -81 70 5 0 29 -14 52 -31z m-418
-55 c28 -2 290 -97 290 -104 0 -18 -181 34 -293 84 -31 14 -57 30 -57 36 0 7
7 7 23 -2 12 -7 29 -13 37 -14z m356 -35 c3 -5 1 -9 -5 -9 -19 0 -91 32 -91
40 0 11 88 -18 96 -31z m-420 -35 c144 -56 203 -86 186 -92 -29 -9 -260 61
-352 108 -120 61 0 50 166 -16z m-4701 -68 c8 -19 44 -89 81 -156 36 -67 64
-124 61 -126 -5 -6 -121 176 -156 243 -11 23 -21 49 -21 58 0 27 21 16 35 -19z
m3988 -73 c45 -64 50 -73 38 -73 -10 0 -91 101 -91 113 0 19 22 2 53 -40z
m1045 32 c34 -7 40 -16 20 -33 -12 -9 -79 6 -95 21 -10 11 9 28 25 23 10 -2
32 -7 50 -11z m412 -20 c7 -9 10 -18 7 -22 -8 -7 -37 15 -37 28 0 14 16 11 30
-6z m-5673 -97 c24 -32 40 -58 36 -58 -18 0 -123 122 -123 143 0 15 37 -21 87
-85z m4235 -41 c71 -106 93 -153 76 -163 -6 -4 -24 7 -41 27 -16 19 -39 45
-51 59 -13 14 -26 36 -29 50 -5 16 -22 32 -49 45 -61 29 -70 50 -34 81 27 24
29 24 48 7 11 -10 47 -58 80 -106z m1182 117 c34 -13 17 -34 -27 -34 -40 0
-67 13 -67 32 0 9 71 11 94 2z m190 -34 c4 -5 -17 -11 -49 -15 -58 -8 -84 2
-70 25 8 13 103 5 119 -10z m-5448 -147 c98 -125 104 -132 75 -108 -26 22
-161 189 -161 199 0 15 15 0 86 -91z m4349 17 c4 -6 -5 -10 -19 -10 -14 0 -26
5 -26 10 0 6 9 10 19 10 11 0 23 -4 26 -10z m142 -31 c43 -17 14 -21 -37 -5
-37 11 -40 14 -18 15 15 1 39 -4 55 -10z m-4555 -125 c57 -64 107 -123 112
-132 14 -28 -141 129 -190 191 -78 98 -30 62 78 -59z m5563 41 c180 -92 374
-209 431 -261 45 -41 46 -43 16 -29 -18 9 -81 47 -140 84 -114 73 -235 136
-372 195 -47 20 -98 48 -115 62 l-30 25 40 -5 c21 -3 98 -35 170 -71z m166 30
c53 -27 295 -194 316 -217 21 -25 12 -21 -67 32 -30 20 -114 72 -187 114 -138
81 -178 112 -126 97 16 -5 45 -16 64 -26z m-5606 -82 c19 -11 19 -12 -3 -12
-13 -1 -38 15 -63 41 -63 65 -68 89 -8 33 30 -27 64 -55 74 -62z m4483 57 c67
-31 102 -56 102 -72 0 -5 -10 -2 -22 6 -58 38 -239 61 -266 34 -9 -9 -12 -5
-12 18 0 17 6 36 13 43 19 20 110 6 185 -29z m-321 -76 c14 -30 27 -74 30 -97
4 -41 3 -40 -42 41 -43 77 -51 112 -25 112 6 0 23 -25 37 -56z m-752 -5 c45
-40 183 -204 197 -234 8 -19 6 -27 -12 -45 -25 -25 -73 -23 -116 5 -49 32 -23
45 47 23 22 -6 42 -8 45 -5 4 4 -19 34 -50 67 -31 34 -59 72 -62 86 -5 18 -11
23 -25 19 -11 -4 -19 -2 -19 4 0 6 -18 23 -40 37 -37 25 -50 51 -33 67 13 14
33 6 68 -24z m1083 -29 c45 -22 82 -44 82 -50 0 -13 1 -13 -50 5 -23 8 -70 20
-105 26 -74 13 -101 28 -92 54 10 25 62 14 165 -35z m-4450 -38 c13 -18 21
-32 16 -32 -5 0 -22 16 -38 36 -16 20 -23 35 -16 32 7 -2 24 -18 38 -36z
m5029 -6 c150 -60 393 -212 393 -247 0 -5 -30 13 -67 40 -81 58 -177 112 -253
140 -74 28 -225 114 -185 106 17 -3 67 -21 112 -39z m-946 -16 c27 -37 35 -80
16 -80 -20 0 -77 69 -77 93 0 26 38 18 61 -13z m262 -17 c29 -14 36 -37 14
-46 -25 -9 -68 6 -83 29 -30 45 0 52 69 17z m-3925 -82 c75 -65 90 -94 26 -49
-49 36 -144 128 -144 141 0 6 10 2 23 -9 12 -11 55 -49 95 -83z m4357 60 c60
-30 104 -66 93 -76 -6 -6 -180 58 -258 94 l-45 21 74 -4 c56 -4 90 -13 136
-35z m270 -32 c68 -28 220 -110 239 -129 5 -5 7 -12 5 -15 -7 -7 -345 160
-354 175 -9 15 14 9 110 -31z m-4616 -113 c62 -61 146 -154 186 -206 70 -92
165 -193 165 -176 0 4 -29 50 -65 101 -60 86 -78 125 -57 125 13 0 115 -110
195 -210 41 -52 94 -116 117 -142 23 -27 38 -48 33 -48 -5 0 -49 34 -98 75
-70 59 -91 72 -95 60 -11 -32 -540 505 -540 547 0 19 52 -22 159 -126z m4108
113 c26 -11 102 -40 168 -64 160 -56 257 -106 316 -162 91 -85 54 -77 -127 29
-61 36 -179 96 -262 133 -138 61 -181 85 -153 85 5 0 31 -9 58 -21z m-333 -59
c8 -80 8 -86 -7 -82 -5 2 -14 -3 -18 -10 -10 -16 -24 -3 -34 30 -5 19 -3 23
12 20 15 -2 18 3 15 32 -3 41 5 80 17 80 5 0 12 -31 15 -70z m-3991 -71 c73
-72 124 -127 114 -122 -9 5 -64 46 -122 92 -89 71 -145 130 -145 155 0 20 35
-8 153 -125z m4771 102 c25 -10 42 -29 33 -37 -5 -5 -69 25 -97 46 -12 9 -9
10 12 6 15 -4 38 -10 52 -15z m-4557 -205 c120 -118 216 -216 213 -219 -7 -8
-364 327 -413 387 -78 95 -12 40 200 -168z m5020 136 c54 -43 105 -87 113 -97
14 -17 14 -17 -15 -2 -33 17 -183 136 -204 161 -32 38 15 11 106 -62z m-1094
38 c50 -39 43 -90 -12 -90 -24 1 -24 2 -8 14 22 17 22 32 0 40 -10 4 -28 -2
-45 -14 l-28 -21 0 39 c0 21 3 42 7 45 13 14 61 6 86 -13z m226 -44 c33 -18
59 -46 42 -46 -18 0 -66 26 -80 44 -17 21 0 21 38 2z m-1015 -88 c9 -12 16
-36 16 -53 l-1 -30 -34 39 c-19 22 -35 45 -35 53 0 21 37 15 54 -9z m192 1
c95 -29 174 -66 174 -80 0 -9 -34 -11 -137 -6 -76 3 -146 8 -156 12 -22 9 -32
47 -17 74 14 27 48 27 136 0z m982 -4 c23 -9 42 -21 42 -25 0 -10 -67 -1 -92
12 -20 10 -25 43 -5 35 6 -3 31 -13 55 -22z m392 -28 c0 -6 -9 -2 -20 8 -11
10 -20 23 -20 28 0 6 9 2 20 -8 11 -10 20 -23 20 -28z m-780 7 c0 -3 -24 -16
-52 -28 -87 -39 -154 -43 -95 -7 42 27 147 52 147 35z m-3594 -15 c3 -6 15 -8
26 -6 14 4 18 2 14 -9 -3 -9 10 -32 33 -57 59 -65 122 -149 117 -155 -10 -9
-236 215 -236 233 0 10 39 5 46 -6z m3804 -24 c13 -14 19 -25 13 -25 -5 0 -20
11 -33 25 -13 14 -19 25 -13 25 5 0 20 -11 33 -25z m903 -29 c33 -13 222 -135
312 -200 33 -23 44 -36 32 -36 -11 0 -31 9 -45 21 -15 11 -73 46 -130 77 -105
58 -212 131 -212 145 0 10 6 9 43 -7z m-1173 -34 c0 -37 -17 -54 -42 -41 -22
12 -23 32 -2 53 24 25 44 20 44 -12z m175 -3 c17 -17 -99 -10 -121 7 -18 14
-14 15 46 9 36 -4 69 -11 75 -16z m-870 -9 c17 -19 19 -19 31 -2 10 14 31 17
131 19 l118 2 -60 -29 c-53 -26 -71 -30 -147 -30 -48 0 -99 -5 -114 -12 -23
-11 -28 -10 -45 11 -11 13 -19 32 -19 42 0 28 80 27 105 -1z m2274 -35 c56
-41 75 -65 52 -65 -11 0 -126 84 -135 99 -16 25 26 8 83 -34z m-1699 25 c0 -5
-9 -14 -20 -20 -15 -8 -20 -8 -20 3 0 8 3 17 7 20 10 10 33 8 33 -3z m388 -13
c4 -17 2 -18 -27 -2 -38 19 -39 27 -4 23 17 -2 29 -10 31 -21z m899 -73 c69
-36 164 -89 211 -118 48 -29 114 -63 147 -76 87 -34 135 -59 135 -70 0 -14
-84 21 -259 110 -223 113 -401 220 -365 220 4 0 63 -30 131 -66z m-1187 31 c0
-3 -6 -15 -12 -26 -10 -17 -10 -23 0 -26 21 -8 13 -18 -23 -32 -19 -7 -35 -17
-35 -22 0 -5 -12 -9 -26 -9 -15 0 -32 -7 -39 -17 -7 -9 -17 -13 -23 -9 -25 15
40 98 103 130 30 16 55 21 55 11z m290 -34 c41 -8 38 -9 -30 -9 -41 0 -88 4
-105 8 -43 11 75 11 135 1z m-711 -11 c-29 -17 -168 -60 -194 -60 l-27 0 29
23 c48 40 66 46 138 46 47 0 65 -3 54 -9z m121 -19 c0 -15 -66 -41 -102 -40
-29 0 -26 3 32 24 36 13 66 24 68 24 1 1 2 -3 2 -8z m2077 -35 c58 -43 82 -66
67 -66 -8 0 -144 100 -144 106 0 11 22 0 77 -40z m-5075 -28 c15 -10 43 -25
62 -33 22 -9 46 -31 61 -55 14 -22 32 -40 40 -40 9 0 12 -6 9 -15 -4 -8 1 -27
11 -41 21 -33 13 -41 -23 -23 -33 17 -262 243 -262 259 0 11 39 -9 102 -52z
m431 -66 c72 -60 109 -102 89 -102 -31 0 -232 173 -232 200 0 14 43 -15 143
-98z m3150 71 c18 -11 -8 -23 -51 -23 -51 0 -89 15 -62 24 8 2 22 7 30 10 15
5 68 -2 83 -11z m-3299 -65 c21 -19 37 -39 35 -46 -2 -7 -33 17 -69 54 -63 65
-45 61 34 -8z m2824 60 c-3 -7 -13 -15 -24 -17 -16 -3 -17 -1 -5 13 16 19 34
21 29 4z m-162 -13 c-47 -36 -151 -63 -306 -80 -66 -7 -59 0 38 44 79 36 136
48 227 50 55 0 58 -1 41 -14z m264 -44 c0 -11 -25 -21 -51 -21 -30 0 -22 -15
19 -35 l37 -19 -85 -7 c-47 -3 -114 -9 -150 -14 l-65 -7 30 32 c17 17 39 37
50 43 51 28 215 49 215 28z m-2616 -48 c31 -21 56 -41 56 -45 0 -10 -69 28
-108 59 -44 36 -10 26 52 -14z m2202 -4 c6 -10 -11 -29 -26 -29 -3 0 -11 4
-19 9 -17 11 -5 31 19 31 10 0 22 -5 26 -11z m768 1 c-12 -12 -118 -24 -141
-16 -15 6 -15 8 -3 16 20 13 157 13 144 0z m-994 -29 c0 -13 -127 -66 -220
-91 -86 -23 -182 -31 -196 -17 -14 13 4 18 90 26 70 7 89 12 103 30 31 38 223
83 223 52z m130 -21 c0 -11 -87 -70 -103 -70 -15 0 14 30 53 56 39 26 50 29
50 14z m-2241 -70 c18 -22 30 -40 29 -40 -2 0 -28 25 -58 56 -30 31 -43 49
-29 40 14 -9 40 -34 58 -56z m364 11 c17 -17 -11 -13 -77 13 -84 32 -85 52 -1
22 37 -13 72 -29 78 -35z m257 -5 c49 -19 52 -21 27 -24 -31 -4 -149 31 -186
55 -41 26 -4 34 53 11 28 -11 76 -30 106 -42z m1905 34 c112 -17 179 -39 162
-56 -3 -4 -30 -15 -59 -25 l-53 -18 38 -16 c80 -33 30 -51 -176 -61 -71 -3
-126 -8 -123 -11 3 -3 43 -9 88 -13 50 -5 109 -18 148 -34 l65 -26 -215 5
-215 4 99 -19 c193 -38 181 -46 -76 -53 -184 -4 -199 -3 -240 16 l-43 21 35 3
c82 8 85 17 8 23 -140 11 -121 43 32 56 61 5 78 10 70 19 -7 9 8 20 58 44 74
33 98 39 86 19 -5 -7 9 2 29 20 21 18 49 32 63 32 13 0 66 -16 116 -35 50 -20
96 -34 102 -32 16 6 -132 76 -174 83 -19 3 -46 7 -60 10 -24 5 -24 6 -5 17 21
12 117 35 150 36 11 0 52 -4 90 -9z m135 0 c0 -5 -6 -10 -14 -10 -8 0 -18 5
-21 10 -3 6 3 10 14 10 12 0 21 -4 21 -10z m400 -9 c0 -8 -56 -21 -97 -21 -13
0 -23 4 -23 9 0 11 29 18 83 20 20 0 37 -3 37 -8z m-2740 -304 c0 -15 -64 35
-145 113 -73 71 -84 78 -129 83 -26 3 -55 12 -64 21 -10 9 -12 16 -5 16 7 0
15 -4 18 -10 10 -16 45 -12 52 6 3 9 -2 30 -12 48 -10 17 51 -36 134 -119 83
-82 151 -153 151 -158z m-125 273 c27 -30 12 -34 -15 -5 -13 14 -19 25 -13 25
5 0 18 -9 28 -20z m1435 11 c0 -12 -48 -23 -62 -15 -8 5 -5 10 8 15 27 11 54
11 54 0z m1500 -11 c0 -13 -50 -33 -59 -24 -7 7 28 34 46 34 7 0 13 -5 13 -10z
m-2748 -45 c38 -14 88 -25 112 -25 47 0 66 -13 66 -46 0 -45 -53 -35 -177 32
-123 67 -124 83 -1 39z m1006 -22 c2 -9 -10 -13 -42 -13 -43 0 -55 7 -39 24
12 11 76 2 81 -11z m108 2 c18 -14 18 -14 -7 -15 -14 0 -34 7 -45 15 -18 14
-18 14 7 15 14 0 34 -7 45 -15z m-1226 -65 c41 -38 69 -69 62 -70 -6 0 -45 31
-85 70 -94 90 -75 91 23 0z m858 53 c-26 -2 -71 -2 -100 0 -29 2 -8 3 47 3 55
0 79 -1 53 -3z m1802 -8 c-7 -8 -19 -15 -26 -15 -8 0 -14 7 -14 15 0 10 10 15
26 15 22 0 25 -2 14 -15z m-2843 -30 c3 -9 3 -19 -1 -22 -7 -7 -36 16 -36 28
0 15 30 10 37 -6z m609 -10 c25 -19 1 -19 -41 0 -30 13 -30 13 -4 14 14 1 34
-6 45 -14z m553 -21 c-11 -10 -29 -14 -55 -12 -38 4 -38 4 -14 15 14 7 38 12
55 12 27 1 28 0 14 -15z m611 2 c-14 -7 -52 -17 -85 -21 -33 -4 -67 -13 -76
-21 -25 -22 -139 -29 -164 -11 -11 9 -16 19 -12 24 9 8 260 40 327 42 35 0 35
0 10 -13z m-1251 -22 c-6 -7 -15 -11 -21 -8 -5 3 -4 12 3 20 6 7 15 11 21 8 5
-3 4 -12 -3 -20z m-130 -9 c70 -24 241 -107 241 -117 0 -11 1 -11 -89 21 -99
37 -201 88 -201 101 0 13 0 13 49 -5z m266 -21 c33 -8 95 -19 138 -24 74 -9
137 -34 137 -53 0 -21 -275 21 -347 53 -84 37 -39 52 72 24z m759 -11 c39 -28
42 -28 173 -26 131 3 136 2 221 -31 112 -43 123 -45 279 -54 73 -5 136 -11
140 -15 3 -4 1 -13 -6 -20 -8 -8 -50 -12 -134 -11 -103 0 -130 4 -171 22 -27
12 -55 22 -63 22 -28 0 5 -26 70 -56 61 -28 61 -28 32 -35 -65 -14 -110 -9
-174 21 -35 17 -66 28 -68 26 -3 -3 10 -18 29 -35 31 -28 32 -30 10 -31 -12 0
-64 17 -115 39 -52 21 -109 42 -128 45 l-34 7 35 -30 c19 -17 63 -40 97 -52
59 -19 95 -42 56 -34 -10 2 -65 11 -123 20 -90 15 -216 46 -285 71 -16 6 -15
2 8 -23 15 -16 25 -32 22 -35 -3 -3 13 -26 35 -51 l41 -46 -57 19 c-70 24 -85
25 -77 4 5 -13 -1 -15 -43 -9 -87 12 -122 25 -143 52 -49 61 -16 69 75 18 34
-19 67 -35 73 -35 22 0 10 19 -24 40 -19 12 -35 25 -35 30 0 5 17 14 38 21
l37 13 -52 7 c-79 10 -105 18 -101 32 7 21 71 47 116 47 48 0 143 -29 197 -61
68 -41 46 -11 -29 37 -75 49 -91 65 -58 59 9 -2 37 -6 60 -9 l44 -4 -22 24
c-19 19 -21 26 -10 39 16 20 17 20 64 -12z m-245 -24 c42 -15 39 -29 -6 -29
-44 0 -69 13 -59 29 9 14 25 14 65 0z m-647 -63 c64 -25 140 -52 169 -59 30
-8 69 -28 92 -47 37 -32 39 -32 35 -9 -2 20 2 25 23 27 28 3 106 -24 96 -34
-3 -3 8 -33 24 -68 16 -34 32 -82 35 -108 6 -45 6 -46 -24 -53 -17 -3 -36 -13
-43 -21 -16 -20 -29 -18 -29 5 0 23 -36 69 -46 58 -4 -4 1 -33 12 -65 29 -89
29 -86 2 -70 -32 18 -189 18 -204 -1 -26 -33 -126 26 -159 95 -17 36 -17 38 0
51 18 12 17 15 -13 57 -36 50 -41 68 -13 42 41 -37 38 -8 -6 59 -45 69 -93
165 -93 186 0 6 6 9 13 6 6 -3 65 -26 129 -51z m282 -17 c52 -14 33 -34 -23
-24 -39 6 -49 14 -34 28 8 9 11 9 57 -4z m122 -24 c26 -19 -1 -20 -36 0 -23
13 -23 14 -4 15 11 0 29 -7 40 -15z m486 -114 c40 -11 95 -22 121 -26 42 -6
47 -8 35 -22 -27 -33 -163 -3 -233 51 -27 20 -10 20 77 -3z m12 -116 c93 -8
173 -18 179 -24 22 -22 31 -263 18 -479 -12 -194 -12 -216 4 -282 22 -89 18
-96 -83 -191 -91 -84 -158 -124 -255 -149 -65 -16 -704 -87 -712 -78 -1 2 15
43 36 91 22 49 55 134 75 190 45 131 157 362 223 462 37 56 60 107 82 179 34
114 64 201 91 265 l18 44 78 -7 c42 -4 153 -13 246 -21z m-786 -282 c2 -9 -7
-13 -27 -13 -30 0 -39 9 -24 24 11 10 46 3 51 -11z m-19 -102 c17 -11 5 -31
-19 -31 -24 0 -36 20 -19 31 8 5 16 9 19 9 3 0 11 -4 19 -9z m1211 -181 c0 -5
-9 -10 -20 -10 -11 0 -20 5 -20 10 0 6 9 10 20 10 11 0 20 -4 20 -10z m8 -108
c2 -7 -6 -12 -17 -12 -21 0 -27 11 -14 24 9 9 26 2 31 -12z m-1310 -18 c26
-18 21 -34 -11 -34 -28 0 -69 28 -62 41 9 14 48 11 73 -7z m1499 -96 c-3 -7
-5 -2 -5 12 0 14 2 19 5 13 2 -7 2 -19 0 -25z m-178 13 c17 -11 5 -31 -19 -31
-24 0 -36 20 -19 31 8 5 16 9 19 9 3 0 11 -4 19 -9z m-1345 -23 c5 -9 7 -20 3
-25 -11 -10 -41 11 -45 31 -5 23 26 18 42 -6z m-38 -79 c9 -16 -12 -33 -31
-25 -14 5 -15 9 -5 21 15 18 26 19 36 4z m1494 -8 c0 -5 3 -18 7 -28 6 -16 5
-16 -10 -4 -19 15 -23 41 -7 41 6 0 10 -4 10 -9z m210 -25 c0 -8 -4 -18 -10
-21 -5 -3 -10 3 -10 14 0 12 5 21 10 21 6 0 10 -6 10 -14z m71 -25 c9 -29 8
-43 -1 -61 -17 -32 -30 -9 -30 53 0 57 15 61 31 8z m-1823 -38 c-4 -22 -48
-31 -48 -10 0 19 10 27 32 27 13 0 18 -6 16 -17z m1431 -24 c33 -20 73 -61 66
-67 -5 -5 -76 34 -114 62 -33 25 -34 26 -10 26 13 0 39 -9 58 -21z m119 -69
c-2 -7 -10 1 -17 16 -12 27 -11 28 4 12 10 -9 16 -21 13 -28z m-1583 0 c4 -6
-7 -10 -24 -10 -17 0 -31 5 -31 10 0 6 11 10 24 10 14 0 28 -4 31 -10z m1413
-47 c-10 -2 -26 -2 -35 0 -10 3 -2 5 17 5 19 0 27 -2 18 -5z m-1445 -60 c4 -2
5 -8 2 -13 -7 -11 -65 8 -65 21 0 8 43 3 63 -8z m1412 -27 c18 -13 18 -14 -4
-21 -25 -8 -47 7 -37 24 9 14 18 14 41 -3z m-900 -46 c3 -5 -3 -10 -15 -10
-12 0 -18 5 -15 10 3 6 10 10 15 10 5 0 12 -4 15 -10z m965 -9 c0 -10 -24 -21
-43 -21 -7 0 -3 7 7 15 22 17 36 19 36 6z m-1530 -11 c0 -5 -12 -10 -26 -10
-14 0 -23 4 -19 10 3 6 15 10 26 10 10 0 19 -4 19 -10z m460 0 c0 -5 -13 -10
-30 -10 -16 0 -30 5 -30 10 0 6 14 10 30 10 17 0 30 -4 30 -10z m-115 -21 c5
-5 1 -9 -12 -9 -29 0 -53 10 -53 22 0 12 50 2 65 -13z m1086 -9 c10 -6 19 -17
19 -25 0 -18 -33 -20 -61 -4 -16 8 -18 13 -8 25 14 17 24 18 50 4z m-1486 -52
c25 -11 34 -28 14 -28 -17 0 -49 20 -49 30 0 13 4 12 35 -2z m1405 -3 c10 -12
9 -16 -3 -21 -19 -7 -60 14 -52 27 9 14 41 11 55 -6z m-290 -14 c0 -5 -13 -14
-30 -20 -35 -12 -41 1 -7 17 28 14 37 14 37 3z m-1425 -10 c3 -5 1 -13 -5 -16
-15 -9 -43 3 -35 15 8 13 32 13 40 1z m1620 -13 c30 -14 32 -24 5 -31 -13 -3
-20 0 -20 9 0 8 -7 14 -15 14 -8 0 -15 5 -15 10 0 13 13 13 45 -2z m-308 -24
c4 -13 -23 -22 -49 -16 -10 2 -18 10 -18 18 0 18 61 16 67 -2z m-1074 -41 c22
-13 37 -27 34 -29 -8 -8 -117 46 -117 57 0 14 38 2 83 -28z m971 11 c9 -3 16
-10 16 -15 0 -12 -27 -10 -75 6 l-40 13 42 1 c23 1 48 -2 57 -5z m302 -9 c-11
-8 -27 -15 -35 -15 -13 1 -12 4 3 15 11 8 27 15 35 15 13 -1 12 -4 -3 -15z
m-490 -10 c-21 -16 -32 -13 -21 4 3 6 14 11 23 11 15 -1 15 -2 -2 -15z m-188
-22 c-10 -2 -26 -2 -35 0 -10 3 -2 5 17 5 19 0 27 -2 18 -5z m-705 -40 c-7 -2
-19 -2 -25 0 -7 3 -2 5 12 5 14 0 19 -2 13 -5z m1157 -3 c-20 -13 -60 -13 -60
0 0 6 17 10 38 10 27 0 33 -3 22 -10z m166 -5 c-11 -8 -31 -15 -45 -14 -26 1
-26 1 4 14 42 19 66 19 41 0z m-266 -20 c0 -14 -72 -13 -77 2 -2 6 4 13 14 15
25 6 63 -5 63 -17z m-920 -1 c0 -9 -5 -14 -12 -12 -18 6 -21 28 -4 28 9 0 16
-7 16 -16z m553 -31 c-7 -2 -21 -2 -30 0 -10 3 -4 5 12 5 17 0 24 -2 18 -5z
m-1922 -20 c35 -21 45 -43 20 -43 -23 0 -73 39 -66 51 8 12 13 12 46 -8z
m-141 -13 c9 -16 8 -22 -4 -26 -21 -8 -36 3 -36 27 0 25 26 25 40 -1z m-140
-6 c0 -2 -9 -4 -21 -4 -11 0 -18 4 -14 10 5 8 35 3 35 -6z m477 -15 c23 -20
15 -32 -19 -25 -34 7 -58 23 -58 38 0 13 58 2 77 -13z m147 1 c14 -5 26 -17
26 -26 0 -14 -7 -16 -37 -11 -41 7 -59 20 -49 36 9 14 27 14 60 1z m170 -16
c9 -3 16 -12 16 -20 0 -11 -5 -11 -25 -2 -39 18 -31 37 9 22z m-817 -36 c28
-26 29 -38 4 -38 -26 0 -66 34 -57 48 11 18 27 15 53 -10z m938 12 c3 -5 -3
-10 -14 -10 -12 0 -21 5 -21 10 0 6 6 10 14 10 8 0 18 -4 21 -10z m-1064 -10
c30 -17 22 -30 -17 -30 -40 0 -77 16 -69 31 8 12 61 12 86 -1z m251 -4 c19 -8
40 -22 48 -30 11 -14 9 -16 -14 -16 -31 0 -106 36 -106 50 0 14 32 12 72 -4z
m184 -21 c34 -22 30 -35 -10 -35 -53 0 -86 16 -86 41 0 19 4 21 36 16 20 -3
47 -13 60 -22z m133 -6 c41 -14 39 -45 -3 -42 -28 2 -66 28 -66 45 0 11 31 10
69 -3z m121 -19 c0 -5 -7 -10 -15 -10 -8 0 -15 5 -15 10 0 6 7 10 15 10 8 0
15 -4 15 -10z m648 1 c21 -13 -21 -21 -107 -21 -92 0 -87 9 11 20 40 4 75 8
78 8 3 1 11 -2 18 -7z m-461 -47 c4 -13 -32 -25 -53 -17 -11 4 -12 8 -3 20 14
16 50 14 56 -3z m181 -1 c5 -18 -20 -16 -44 2 -18 15 -18 15 10 13 16 -2 31
-9 34 -15z m-1268 -3 c8 -5 11 -12 8 -15 -9 -9 -68 5 -68 16 0 12 41 11 60 -1z
m165 -11 c12 -18 -2 -20 -36 -5 l-34 14 32 1 c17 1 35 -4 38 -10z m145 -3 c0
-16 -27 -29 -41 -20 -13 8 9 34 27 34 8 0 14 -6 14 -14z m130 -1 c16 -19 4
-35 -25 -35 -33 0 -55 10 -55 25 0 26 60 34 80 10z m135 3 c33 -15 33 -38 -1
-38 -33 0 -64 17 -64 35 0 18 30 19 65 3z m148 -5 c12 -12 -15 -33 -43 -33
-32 0 -41 7 -33 26 5 14 64 20 76 7z m182 -2 c3 -5 1 -13 -5 -16 -15 -9 -43 3
-35 15 8 13 32 13 40 1z m408 -48 c-7 -2 -21 -2 -30 0 -10 3 -4 5 12 5 17 0
24 -2 18 -5z m-1133 -41 c22 -9 29 -16 20 -19 -9 -2 -40 8 -70 22 -48 22 -50
24 -20 19 19 -3 51 -13 70 -22z m1024 22 c9 -3 16 -11 16 -16 0 -14 -148 -4
-163 11 -8 8 7 11 60 11 39 0 78 -3 87 -6z m-823 -40 c17 -8 29 -18 26 -20 -7
-7 -130 26 -142 38 -15 16 79 2 116 -18z m632 15 c23 -6 37 -16 37 -26 0 -14
-11 -15 -80 -10 -77 5 -116 19 -104 38 7 12 101 11 147 -2z m-438 -34 c28 -23
28 -24 8 -25 -34 0 -73 18 -73 35 0 23 31 18 65 -10z m888 18 c-7 -2 -21 -2
-30 0 -10 3 -4 5 12 5 17 0 24 -2 18 -5z m-608 -22 l40 -18 -69 -7 c-45 -5
-72 -4 -79 3 -6 6 -30 11 -53 11 -60 0 -65 18 -7 23 102 8 129 6 168 -12z
m485 11 c0 -12 -46 -32 -72 -32 -28 0 -18 9 29 25 47 17 43 17 43 7z m-180
-42 c0 -18 -49 -35 -62 -22 -9 9 -5 14 13 21 32 13 49 13 49 1z m-610 -41 c10
-5 -7 -8 -45 -9 -70 0 -107 8 -99 22 7 11 120 1 144 -13z m470 2 c0 -8 -52
-31 -71 -31 -20 0 -7 29 14 33 40 8 57 7 57 -2z m-180 -21 c12 -8 11 -10 -7
-10 -13 0 -23 5 -23 10 0 13 11 13 30 0z"/>
<path d="M6980 6918 c-22 -12 -16 -13 58 -16 77 -3 83 -4 77 -22 -8 -26 12
-26 45 0 19 14 22 22 14 30 -17 17 -164 23 -194 8z"/>
<path d="M6873 6893 c9 -2 23 -2 30 0 6 3 -1 5 -18 5 -16 0 -22 -2 -12 -5z"/>
<path d="M6755 6800 c-10 -11 -15 -23 -12 -27 8 -7 47 25 47 39 0 14 -16 9
-35 -12z"/>
<path d="M6984 6798 c-28 -32 -54 -75 -54 -90 0 -7 21 9 48 34 26 26 61 54 77
62 l30 16 -41 0 c-30 0 -46 -6 -60 -22z"/>
<path d="M7617 6801 c8 -33 -31 -44 -166 -49 -74 -3 -118 -8 -110 -13 8 -5 37
-9 64 -9 65 0 298 -27 347 -41 27 -7 38 -15 38 -28 0 -18 3 -18 43 -4 45 16
120 12 143 -8 8 -6 14 -20 14 -31 0 -18 1 -18 29 3 18 13 50 24 80 27 28 2 49
8 46 12 -3 4 -58 13 -122 20 -65 7 -129 17 -143 23 -14 5 -59 11 -100 13 -117
6 -134 13 -140 59 -3 21 -10 40 -17 42 -7 3 -9 -3 -6 -16z"/>
<path d="M6820 6763 c-34 -53 -39 -74 -12 -50 26 23 65 97 52 97 -6 0 -24 -21
-40 -47z"/>
<path d="M7266 6779 c-14 -11 -26 -25 -26 -30 0 -17 26 -9 48 14 38 40 23 51
-22 16z"/>
<path d="M7148 6758 c-20 -32 -29 -58 -19 -58 9 0 34 35 44 63 9 25 -8 21 -25
-5z"/>
<path d="M6601 6664 c-43 -48 -28 -68 16 -21 33 36 42 57 24 57 -5 0 -23 -16
-40 -36z"/>
<path d="M7402 6683 c-17 -7 -44 -61 -34 -67 10 -6 72 48 72 63 0 11 -16 13
-38 4z"/>
<path d="M7513 6645 c-27 -41 -29 -53 -7 -34 19 15 47 69 37 69 -5 0 -18 -16
-30 -35z"/>
<path d="M6922 6638 c-20 -26 -53 -100 -49 -111 6 -18 67 73 67 100 0 26 -3
28 -18 11z"/>
<path d="M8152 6617 c-34 -35 -47 -74 -14 -44 17 15 57 77 50 77 -2 0 -18 -15
-36 -33z"/>
<path d="M7624 6598 c-4 -7 -14 -23 -22 -35 -9 -15 -10 -23 -3 -23 12 0 45 59
38 67 -3 2 -8 -2 -13 -9z"/>
<path d="M6656 6584 c-9 -22 3 -32 14 -14 12 19 12 30 1 30 -5 0 -12 -7 -15
-16z"/>
<path d="M6748 6565 c-31 -49 -43 -85 -29 -85 13 0 63 98 58 113 -2 7 -15 -6
-29 -28z"/>
<path d="M7017 6523 c-9 -17 -13 -34 -8 -37 14 -9 33 21 29 46 -3 22 -5 21
-21 -9z"/>
<path d="M7910 6528 c47 -11 128 -30 180 -43 52 -12 97 -21 98 -20 15 14 -271
86 -333 84 -17 -1 6 -9 55 -21z"/>
<path d="M7171 6516 c-6 -16 -10 -34 -8 -40 6 -17 29 33 24 52 -3 13 -7 10
-16 -12z"/>
<path d="M7321 6482 c-22 -31 -29 -68 -11 -57 12 7 42 76 36 82 -2 2 -13 -9
-25 -25z"/>
<path d="M8220 6450 c-8 -15 -8 -20 3 -20 14 0 37 19 37 32 0 16 -30 7 -40
-12z"/>
<path d="M8365 6440 c-41 -43 -24 -48 22 -6 24 23 32 36 22 36 -8 0 -28 -13
-44 -30z"/>
<path d="M7645 6410 c-38 -40 -26 -49 16 -12 18 16 28 32 22 35 -5 3 -23 -7
-38 -23z"/>
<path d="M7532 6394 c-39 -39 -53 -64 -34 -64 16 0 84 79 80 92 -3 9 -19 -1
-46 -28z"/>
<path d="M7945 6360 c-15 -22 -25 -43 -21 -47 7 -8 7 -8 40 45 33 53 18 55
-19 2z"/>
<path d="M6925 6370 c-4 -6 12 -10 40 -10 28 0 44 4 40 10 -3 6 -21 10 -40 10
-19 0 -37 -4 -40 -10z"/>
<path d="M7803 6342 c-28 -39 -45 -72 -36 -72 9 0 66 90 60 96 -2 2 -12 -9
-24 -24z"/>
<path d="M7125 6350 c-4 -6 7 -10 27 -10 25 0 29 3 18 10 -19 13 -37 13 -45 0z"/>
<path d="M7440 6270 c0 -5 9 -10 20 -10 11 0 20 5 20 10 0 6 -9 10 -20 10 -11
0 -20 -4 -20 -10z"/>
<path d="M8294 6225 c-6 -24 0 -44 10 -34 11 11 17 59 7 59 -6 0 -13 -11 -17
-25z"/>
<path d="M8532 6215 c0 -16 2 -22 5 -12 2 9 2 23 0 30 -3 6 -5 -1 -5 -18z"/>
<path d="M7985 6190 c-9 -18 -14 -34 -11 -37 2 -3 12 9 21 27 9 18 14 34 11
37 -2 3 -12 -9 -21 -27z"/>
<path d="M8780 6080 c-29 -57 -30 -84 -1 -39 15 25 42 99 36 99 -3 0 -18 -27
-35 -60z"/>
<path d="M8522 6086 c-57 -62 -77 -103 -25 -54 35 34 81 98 70 98 -3 0 -23
-20 -45 -44z"/>
<path d="M8295 6070 c-26 -29 -13 -45 13 -17 13 14 19 28 14 31 -5 3 -17 -3
-27 -14z"/>
<path d="M8770 5966 c-6 -9 -10 -21 -8 -28 3 -8 9 -4 17 10 15 28 9 39 -9 18z"/>
<path d="M8400 5931 c0 -11 31 -24 39 -16 3 3 -1 10 -9 15 -19 12 -30 12 -30
1z"/>
<path d="M8988 5850 c-17 -27 -32 -70 -24 -70 10 0 47 71 44 82 -3 8 -11 3
-20 -12z"/>
<path d="M9033 5800 c-13 -21 -23 -42 -23 -46 0 -9 34 35 49 64 21 39 -3 24
-26 -18z"/>
<path d="M9231 5795 c0 -35 2 -37 11 -19 7 15 7 28 -1 40 -9 16 -10 12 -10
-21z"/>
<path d="M8710 5805 c0 -2 14 -11 30 -20 17 -9 30 -12 30 -7 0 5 -11 14 -25
20 -28 13 -35 14 -35 7z"/>
<path d="M9281 5782 c-7 -13 -10 -31 -8 -40 3 -13 7 -10 16 12 15 37 9 59 -8
28z"/>
<path d="M8760 5670 c0 -19 3 -21 12 -12 9 9 9 15 0 24 -9 9 -12 7 -12 -12z"/>
<path d="M9400 5610 c-6 -12 -9 -24 -7 -27 3 -2 11 5 17 17 6 12 9 24 7 27 -3
2 -11 -5 -17 -17z"/>
<path d="M9425 5560 c-21 -28 -35 -53 -32 -56 2 -3 21 18 42 46 21 28 35 53
32 56 -2 3 -21 -18 -42 -46z"/>
<path d="M9730 5445 c-18 -43 -29 -85 -24 -85 9 0 45 93 41 104 -3 6 -10 -2
-17 -19z"/>
<path d="M9916 5434 c-9 -22 3 -32 14 -14 12 19 12 30 1 30 -5 0 -12 -7 -15
-16z"/>
<path d="M9746 5356 c-20 -30 -39 -63 -43 -73 -13 -36 32 14 62 68 37 69 26
72 -19 5z"/>
<path d="M9958 5378 c-8 -13 -21 -34 -28 -48 -12 -24 -12 -24 6 -8 25 22 58
78 46 78 -5 0 -16 -10 -24 -22z"/>
<path d="M10620 5060 c0 -12 35 -31 44 -23 8 9 -14 33 -30 33 -8 0 -14 -4 -14
-10z"/>
<path d="M9090 6488 c43 -26 101 -51 106 -45 6 6 -111 67 -127 67 -8 0 2 -10
21 -22z"/>
<path d="M6875 6230 c3 -5 13 -10 21 -10 8 0 14 5 14 10 0 6 -9 10 -21 10 -11
0 -17 -4 -14 -10z"/>
<path d="M6698 6213 c17 -2 47 -2 65 0 17 2 3 4 -33 4 -36 0 -50 -2 -32 -4z"/>
<path d="M6992 6214 c11 -10 98 -33 98 -25 0 4 -17 13 -39 19 -41 13 -68 16
-59 6z"/>
<path d="M6498 6193 c12 -2 32 -2 45 0 12 2 2 4 -23 4 -25 0 -35 -2 -22 -4z"/>
<path d="M6383 6173 c9 -2 23 -2 30 0 6 3 -1 5 -18 5 -16 0 -22 -2 -12 -5z"/>
<path d="M7146 6171 c14 -13 112 -43 126 -39 7 3 -16 14 -52 26 -69 24 -90 27
-74 13z"/>
<path d="M7443 6133 c9 -2 23 -2 30 0 6 3 -1 5 -18 5 -16 0 -22 -2 -12 -5z"/>
<path d="M7336 6111 c5 -5 23 -12 39 -16 29 -6 29 -6 11 9 -21 17 -67 23 -50
7z"/>
<path d="M6560 6061 c-20 -4 54 -10 175 -14 116 -4 248 -9 295 -12 52 -2 77
-1 64 5 -50 20 -454 36 -534 21z"/>
<path d="M6223 6033 c-27 -23 -58 -73 -46 -73 15 0 76 67 71 80 -2 8 -10 6
-25 -7z"/>
<path d="M6393 6033 c9 -2 23 -2 30 0 6 3 -1 5 -18 5 -16 0 -22 -2 -12 -5z"/>
<path d="M7281 6016 c2 -2 54 -11 114 -20 190 -28 182 -27 163 -16 -26 16
-293 51 -277 36z"/>
<path d="M7640 5960 c0 -4 12 -13 28 -18 196 -73 247 -90 251 -87 2 3 -34 22
-80 44 -87 41 -199 75 -199 61z"/>
<path d="M6915 5940 c-3 -5 3 -10 15 -10 12 0 18 5 15 10 -3 6 -10 10 -15 10
-5 0 -12 -4 -15 -10z"/>
<path d="M7061 5927 c89 -21 92 -23 84 -55 l-7 -27 26 24 c19 18 41 26 88 30
l63 6 -75 13 c-41 7 -111 15 -155 17 l-80 5 56 -13z"/>
<path d="M7950 5902 c0 -8 43 -32 55 -32 15 0 1 19 -20 28 -31 14 -35 15 -35
4z"/>
<path d="M6220 5848 c-17 -22 -28 -44 -25 -46 6 -6 29 21 50 61 23 40 9 33
-25 -15z"/>
<path d="M7485 5859 c39 -11 113 -31 165 -46 227 -62 410 -148 753 -352 104
-62 191 -111 193 -108 7 6 -181 126 -381 244 -250 146 -341 194 -359 187 -8
-3 -73 10 -143 30 -152 42 -258 66 -281 65 -9 0 15 -9 53 -20z"/>
<path d="M7764 5825 c22 -17 36 -19 36 -6 0 10 -24 21 -43 21 -7 0 -3 -7 7
-15z"/>
<path d="M8048 5799 c45 -23 85 -39 89 -35 3 3 -23 19 -58 35 -101 45 -122 45
-31 0z"/>
<path d="M6866 5808 c-18 -25 -21 -58 -7 -58 14 0 62 61 55 71 -9 16 -32 10
-48 -13z"/>
<path d="M7195 5799 c33 -5 94 -14 135 -20 137 -19 363 -80 559 -150 107 -38
196 -67 199 -64 13 13 -327 138 -490 180 -155 39 -321 66 -404 64 l-59 -1 60
-9z"/>
<path d="M8216 5715 c10 -8 25 -15 32 -15 7 0 17 -10 22 -22 5 -13 9 -17 9
-10 1 10 8 9 31 -3 35 -18 39 -29 8 -21 -50 12 263 -136 336 -159 44 -14 125
-50 180 -79 56 -30 112 -57 126 -61 37 -11 146 -78 133 -82 -7 -3 -125 43
-264 102 -139 58 -257 104 -262 102 -5 -1 65 -38 155 -81 89 -43 226 -109 304
-147 77 -38 143 -69 147 -69 3 0 4 7 1 15 -8 19 0 19 36 0 20 -11 27 -20 23
-34 -4 -16 8 -26 65 -55 135 -68 441 -296 645 -481 107 -97 150 -120 87 -48
-39 45 -109 107 -205 183 -39 30 -119 96 -178 148 -115 99 -175 140 -273 190
-34 17 -83 50 -109 72 -73 63 -95 76 -105 60 -10 -16 -29 -5 -40 26 -19 49
-214 165 -475 281 -88 40 -222 101 -298 137 -141 68 -165 77 -131 51z"/>
<path d="M8570 5645 c13 -14 26 -25 28 -25 3 0 -5 11 -18 25 -13 14 -26 25
-28 25 -3 0 5 -11 18 -25z"/>
<path d="M6132 5630 c0 -14 2 -19 5 -12 2 6 2 18 0 25 -3 6 -5 1 -5 -13z"/>
<path d="M6893 5643 c9 -2 23 -2 30 0 6 3 -1 5 -18 5 -16 0 -22 -2 -12 -5z"/>
<path d="M7145 5631 c4 -14 -1 -25 -20 -37 -14 -9 -31 -26 -37 -37 -7 -14 3
-10 33 15 56 45 80 57 132 68 38 7 34 8 -36 9 -73 1 -78 0 -72 -18z"/>
<path d="M6326 5609 c-45 -54 -45 -114 1 -94 16 8 16 9 -4 12 -27 5 -28 11
-10 38 54 79 60 100 13 44z"/>
<path d="M7430 5627 c0 -3 51 -17 113 -32 61 -15 168 -42 236 -61 69 -18 127
-32 129 -29 8 8 -47 25 -223 70 -172 44 -255 61 -255 52z"/>
<path d="M8270 5600 c33 -26 52 -25 21 0 -13 11 -28 20 -35 20 -6 0 0 -9 14
-20z"/>
<path d="M7890 5592 c0 -9 90 -55 97 -49 5 6 -40 35 -72 47 -14 5 -25 6 -25 2z"/>
<path d="M8129 5546 c13 -15 60 -30 69 -22 5 5 -59 36 -74 36 -4 0 -1 -6 5
-14z"/>
<path d="M7211 5511 c-30 -42 -26 -49 9 -16 30 29 38 45 21 45 -5 0 -19 -13
-30 -29z"/>
<path d="M7305 5530 c-3 -5 3 -10 15 -10 12 0 18 5 15 10 -3 6 -10 10 -15 10
-5 0 -12 -4 -15 -10z"/>
<path d="M7430 5512 c18 -11 142 -34 148 -27 8 8 -42 22 -103 29 -37 4 -54 3
-45 -2z"/>
<path d="M8079 5496 c14 -14 22 -28 19 -31 -3 -3 -33 3 -67 14 -33 10 -61 16
-61 11 0 -8 237 -90 263 -90 36 0 251 -118 420 -232 53 -36 87 -54 84 -43 -4
9 -7 21 -7 26 0 5 -7 9 -15 9 -8 0 -15 4 -15 10 0 5 -24 22 -52 36 -71 36
-260 149 -289 174 l-24 20 43 -15 c52 -18 345 -164 427 -213 64 -38 155 -102
155 -107 0 -2 -29 10 -65 27 -100 46 -87 28 23 -32 137 -74 225 -134 299 -203
34 -33 63 -55 63 -50 0 21 -114 134 -258 256 -86 72 -150 133 -144 135 19 6
206 -96 304 -165 50 -36 100 -67 111 -69 10 -2 28 -6 40 -10 25 -7 21 -3 -43
48 -52 42 -279 187 -342 219 -24 12 -80 30 -125 40 -44 10 -105 30 -135 45
-52 26 -52 26 -33 4 14 -16 15 -22 5 -18 -114 44 -207 82 -262 107 -78 36 -78
36 -78 16 0 -19 -42 -4 -170 60 -83 41 -92 44 -71 21z"/>
<path d="M5893 5454 c-35 -67 -48 -104 -36 -104 11 0 76 137 71 151 -2 6 -18
-15 -35 -47z"/>
<path d="M7625 5470 c3 -5 15 -10 26 -10 10 0 19 5 19 10 0 6 -12 10 -26 10
-14 0 -23 -4 -19 -10z"/>
<path d="M6571 5423 c-12 -14 -19 -28 -16 -31 5 -5 44 38 45 51 0 13 -8 7 -29
-20z"/>
<path d="M7223 5413 c9 -2 25 -2 35 0 9 3 1 5 -18 5 -19 0 -27 -2 -17 -5z"/>
<path d="M7855 5410 c10 -16 105 -62 118 -57 7 2 -16 18 -50 35 -67 34 -78 38
-68 22z"/>
<path d="M7378 5393 c12 -2 30 -2 40 0 9 3 -1 5 -23 4 -22 0 -30 -2 -17 -4z"/>
<path d="M7508 5373 c12 -2 32 -2 45 0 12 2 2 4 -23 4 -25 0 -35 -2 -22 -4z"/>
<path d="M7641 5356 c8 -8 154 -57 184 -62 51 -9 9 13 -78 41 -70 22 -117 32
-106 21z"/>
<path d="M8690 5357 c0 -12 141 -88 157 -85 12 3 -3 15 -47 40 -63 35 -110 54
-110 45z"/>
<path d="M6310 5318 c-19 -31 -25 -48 -16 -48 2 0 15 18 30 40 14 22 22 40 16
40 -6 0 -19 -15 -30 -32z"/>
<path d="M8025 5330 c4 -6 61 -38 128 -72 67 -33 146 -76 175 -94 59 -38 73
-43 48 -15 -10 10 -16 27 -14 37 4 21 -68 65 -111 69 -15 1 -34 6 -42 11 -8 5
-22 7 -31 6 -10 -2 -18 2 -18 7 0 6 -9 11 -20 11 -14 0 -18 5 -13 16 5 13 2
15 -14 10 -11 -3 -37 1 -57 9 -21 9 -35 11 -31 5z m311 -125 c10 -8 14 -15 7
-15 -19 0 -43 11 -43 21 0 13 14 11 36 -6z"/>
<path d="M6078 5324 c-5 -4 -8 -23 -8 -43 1 -30 2 -33 11 -18 11 19 8 73 -3
61z"/>
<path d="M8046 5221 c14 -14 306 -142 311 -137 7 6 -111 65 -220 110 -91 37
-108 42 -91 27z"/>
<path d="M7454 5186 c-21 -19 -36 -37 -33 -40 3 -4 26 12 50 33 54 49 38 55
-17 7z"/>
<path d="M7704 5162 c-67 -49 -72 -68 -6 -23 34 23 62 44 62 46 0 11 -20 3
-56 -23z"/>
<path d="M8530 5185 c0 -3 18 -21 40 -41 22 -20 40 -40 40 -45 0 -5 -43 12
-97 36 -53 25 -98 43 -101 41 -6 -7 174 -96 245 -121 33 -12 69 -29 78 -38 21
-21 184 -101 191 -94 3 3 -27 28 -68 55 -120 81 -328 212 -328 207z m136 -110
c10 -8 14 -15 8 -15 -5 0 -19 7 -30 15 -10 8 -14 15 -8 15 5 0 19 -7 30 -15z"/>
<path d="M6852 5133 c-35 -54 -66 -123 -59 -130 3 -2 26 34 52 82 52 94 56
124 7 48z"/>
<path d="M6476 5085 c-10 -15 -15 -32 -13 -38 2 -7 12 3 21 21 21 41 15 53 -8
17z"/>
<path d="M5937 5082 c-22 -24 -47 -86 -46 -114 0 -23 1 -23 11 2 5 14 21 49
34 78 26 56 26 62 1 34z"/>
<path d="M6866 5020 c-22 -55 -20 -84 3 -40 25 48 34 80 23 80 -6 0 -17 -18
-26 -40z"/>
<path d="M8400 5056 c0 -2 51 -36 113 -76 154 -100 158 -102 164 -97 5 6 -48
43 -173 122 -80 50 -104 62 -104 51z"/>
<path d="M8152 5038 c-7 -7 -12 -18 -12 -25 0 -18 35 0 44 22 7 18 -15 20 -32
3z"/>
<path d="M6225 5020 c-13 -21 -24 -70 -15 -70 10 0 34 69 27 76 -3 3 -8 0 -12
-6z"/>
<path d="M6504 5019 c-17 -21 -47 -106 -42 -120 2 -6 16 16 32 50 27 60 32 98
10 70z"/>
<path d="M8235 5000 c-26 -28 -30 -51 -6 -35 11 6 45 65 38 65 -2 0 -16 -13
-32 -30z"/>
<path d="M6022 4920 c-11 -25 -23 -63 -27 -85 -6 -39 -6 -39 9 -15 22 36 48
118 43 133 -3 6 -14 -8 -25 -33z"/>
<path d="M7196 4897 c-37 -48 -32 -57 9 -17 19 19 35 38 35 42 0 18 -20 6 -44
-25z"/>
<path d="M8482 4918 c-7 -7 -12 -18 -12 -26 0 -10 4 -10 22 2 37 26 51 20 31
-11 l-16 -28 23 22 c14 13 20 28 17 37 -7 19 -48 21 -65 4z"/>
<path d="M7441 4831 c-17 -33 -28 -61 -23 -61 12 0 64 98 60 112 -2 6 -19 -17
-37 -51z"/>
<path d="M8053 4863 c15 -2 37 -2 50 0 12 2 0 4 -28 4 -27 0 -38 -2 -22 -4z"/>
<path d="M8713 4857 c2 -7 14 -14 26 -15 28 -4 20 13 -9 21 -14 3 -20 1 -17
-6z"/>
<path d="M7212 4825 c-14 -31 -15 -48 -3 -41 12 8 32 66 22 66 -4 0 -13 -11
-19 -25z"/>
<path d="M8288 4843 c6 -2 18 -2 25 0 6 3 1 5 -13 5 -14 0 -19 -2 -12 -5z"/>
<path d="M7485 4800 c-10 -22 -16 -43 -12 -46 7 -7 32 32 42 64 11 37 -11 24
-30 -18z"/>
<path d="M7842 4803 c-10 -15 -27 -43 -36 -62 -29 -55 3 -32 37 27 32 57 32
81 -1 35z"/>
<path d="M9069 4793 c-7 -18 -6 -30 1 -37 14 -14 30 9 30 42 0 30 -18 28 -31
-5z"/>
<path d="M8956 4777 c-18 -23 -30 -54 -34 -82 -2 -25 -9 -48 -13 -51 -5 -3 -9
-12 -9 -21 0 -13 3 -13 16 -2 24 20 44 65 44 100 0 18 7 40 16 50 9 10 14 23
12 30 -2 7 -16 -3 -32 -24z"/>
<path d="M8572 4755 c0 -16 2 -22 5 -12 2 9 2 23 0 30 -3 6 -5 -1 -5 -18z"/>
<path d="M5915 4725 c34 -147 95 -296 143 -347 52 -56 57 -25 8 45 -19 26 -58
107 -87 180 -52 133 -77 179 -64 122z"/>
<path d="M7866 4719 c-34 -40 -60 -89 -47 -89 18 0 89 106 78 116 -2 3 -16 -9
-31 -27z"/>
<path d="M6153 4719 c-6 -14 -14 -52 -17 -85 l-6 -59 20 60 c11 33 19 71 17
85 l-3 25 -11 -26z"/>
<path d="M9356 4693 c-18 -53 -20 -89 -6 -98 5 -3 12 4 14 17 9 41 17 128 12
128 -2 0 -11 -21 -20 -47z"/>
<path d="M6000 4710 c-7 -13 -7 -20 -1 -20 6 0 15 9 21 20 7 13 7 20 1 20 -6
0 -15 -9 -21 -20z"/>
<path d="M8665 4689 l-45 -41 -117 20 c-143 25 -240 37 -232 28 4 -4 60 -16
125 -27 143 -24 232 -46 259 -63 11 -7 35 -13 54 -14 19 0 56 -6 83 -13 73
-17 69 -4 -7 21 -37 12 -69 28 -72 36 -3 7 5 27 17 45 19 25 20 33 9 40 -22
14 -27 12 -74 -32z m34 -13 c-11 -24 -29 -36 -29 -18 0 12 31 54 36 49 3 -2
-1 -16 -7 -31z"/>
<path d="M6326 4688 c-3 -13 -6 -41 -6 -63 1 -52 17 -27 26 39 7 48 -8 66 -20
24z"/>
<path d="M9402 4698 c-14 -14 -16 -28 -3 -28 9 0 24 30 18 36 -2 2 -9 -2 -15
-8z"/>
<path d="M9134 4635 c-21 -30 -35 -58 -32 -60 5 -5 43 47 67 93 22 41 1 22
-35 -33z"/>
<path d="M6802 4655 c-14 -31 -15 -48 -3 -41 12 8 32 66 22 66 -4 0 -13 -11
-19 -25z"/>
<path d="M6567 4633 c-3 -10 -10 -33 -15 -50 -16 -52 4 -38 22 14 19 55 19 53
7 53 -5 0 -11 -8 -14 -17z"/>
<path d="M8121 4556 c-13 -14 -21 -30 -19 -37 2 -7 14 1 27 20 28 39 23 50 -8
17z"/>
<path d="M6956 4538 c-20 -49 -28 -78 -21 -78 6 0 22 36 35 83 12 37 2 34 -14
-5z"/>
<path d="M8908 4553 c6 -2 18 -2 25 0 6 3 1 5 -13 5 -14 0 -19 -2 -12 -5z"/>
<path d="M7906 4478 c-22 -62 -28 -88 -21 -88 8 0 55 101 55 118 0 27 -19 10
-34 -30z"/>
<path d="M6990 4468 c-30 -41 -42 -75 -17 -48 19 21 60 90 53 90 -3 0 -19 -19
-36 -42z"/>
<path d="M7563 4483 c-30 -43 -35 -53 -26 -53 11 0 57 69 51 76 -3 3 -15 -7
-25 -23z"/>
<path d="M9100 4462 c-64 -65 -98 -77 -165 -57 -62 18 -75 19 -75 5 0 -15 43
-30 128 -45 82 -14 119 -11 102 11 -13 14 -3 38 37 92 37 49 24 46 -27 -6z"/>
<path d="M7272 4488 c-17 -22 -92 -177 -92 -190 0 -15 48 70 84 149 25 53 27
64 8 41z"/>
<path d="M8518 4493 c6 -2 18 -2 25 0 6 3 1 5 -13 5 -14 0 -19 -2 -12 -5z"/>
<path d="M8363 4450 c-27 -11 -30 -30 -5 -30 19 0 42 18 42 32 0 10 -9 9 -37
-2z"/>
<path d="M6301 4418 c-18 -61 -23 -98 -12 -98 17 0 41 56 41 95 0 44 -15 45
-29 3z"/>
<path d="M6496 4431 c-7 -11 -36 -147 -35 -164 0 -7 8 7 17 30 10 23 23 48 30
55 14 14 16 88 3 88 -6 0 -12 -4 -15 -9z"/>
<path d="M6594 4429 c-3 -6 -1 -16 5 -22 8 -8 11 -5 11 11 0 24 -5 28 -16 11z"/>
<path d="M7600 4426 c-6 -9 -10 -21 -8 -28 3 -8 9 -4 17 10 15 28 9 39 -9 18z"/>
<path d="M9244 4408 c-17 -18 -41 -49 -54 -68 l-23 -35 42 40 c36 33 80 95 68
95 -2 0 -17 -15 -33 -32z"/>
<path d="M9524 4365 c-23 -41 -39 -75 -35 -75 12 0 81 112 81 131 0 11 -1 19
-2 19 -2 -1 -22 -34 -44 -75z"/>
<path d="M9470 4399 c-13 -24 -4 -41 10 -19 10 16 13 40 5 40 -2 0 -9 -9 -15
-21z"/>
<path d="M8720 4400 c-11 -7 -1 -10 35 -10 36 0 46 3 35 10 -8 5 -24 10 -35
10 -11 0 -27 -5 -35 -10z"/>
<path d="M9771 4382 c-7 -13 -11 -28 -8 -35 2 -7 9 -2 16 11 7 13 11 28 8 35
-2 7 -9 2 -16 -11z"/>
<path d="M8575 4380 c-4 -6 3 -10 14 -10 25 0 27 6 6 13 -8 4 -17 2 -20 -3z"/>
<path d="M6030 4369 c0 -8 7 -24 15 -35 11 -15 14 -16 15 -3 0 8 -7 24 -15 35
-11 15 -14 16 -15 3z"/>
<path d="M6771 4320 c0 -33 1 -34 11 -12 8 17 8 26 0 34 -9 9 -12 4 -11 -22z"/>
<path d="M9235 4315 c-16 -13 -26 -27 -22 -32 4 -4 22 7 40 25 37 37 25 42
-18 7z"/>
<path d="M9800 4319 c-10 -18 -9 -20 7 -17 10 2 19 11 21 21 5 24 -15 21 -28
-4z"/>
<path d="M8281 4311 c-9 -6 -10 -11 -2 -15 13 -8 31 1 31 15 0 11 -11 11 -29
0z"/>
<path d="M8526 4281 c-10 -11 -16 -25 -14 -31 2 -6 14 3 26 19 25 34 15 42
-12 12z"/>
<path d="M6096 4233 c71 -124 185 -275 198 -262 3 3 -20 39 -52 80 -31 41 -79
110 -107 152 -55 84 -82 105 -39 30z"/>
<path d="M7242 4255 c0 -16 2 -22 5 -12 2 9 2 23 0 30 -3 6 -5 -1 -5 -18z"/>
<path d="M9570 4230 c-12 -23 -17 -39 -11 -35 15 8 44 65 37 72 -2 3 -14 -14
-26 -37z"/>
<path d="M9181 4231 c30 -16 90 -49 133 -75 44 -25 82 -43 85 -40 10 9 -54 52
-146 98 -101 50 -158 64 -72 17z"/>
<path d="M7012 4227 c-15 -18 -44 -99 -38 -105 3 -2 17 22 31 53 25 58 28 78
7 52z"/>
<path d="M7880 4237 c0 -1 -4 -17 -9 -35 -12 -41 4 -42 18 -1 13 39 13 39 1
39 -5 0 -10 -1 -10 -3z"/>
<path d="M7396 4192 c-28 -57 -46 -112 -37 -112 9 0 66 138 59 145 -2 3 -13
-12 -22 -33z"/>
<path d="M9068 4217 c18 -21 92 -59 92 -47 0 21 -49 60 -76 60 -20 0 -24 -3
-16 -13z"/>
<path d="M7610 4174 c-31 -63 -17 -68 14 -5 15 28 22 51 17 51 -5 0 -19 -20
-31 -46z"/>
<path d="M9858 4203 c-19 -22 -51 -83 -46 -88 2 -2 19 18 37 46 34 48 39 76 9
42z"/>
<path d="M7665 4150 c-14 -28 -24 -57 -22 -63 2 -6 16 15 32 46 15 32 25 60
22 63 -3 3 -17 -17 -32 -46z"/>
<path d="M7054 4159 c-19 -37 -35 -89 -28 -89 3 0 17 25 31 56 27 60 25 87 -3
33z"/>
<path d="M7915 4137 c-17 -42 -18 -47 -7 -47 10 0 34 72 27 79 -3 2 -12 -12
-20 -32z"/>
<path d="M8197 4135 c-4 -8 -2 -17 3 -20 6 -4 10 3 10 14 0 25 -6 27 -13 6z"/>
<path d="M8878 4143 c12 -2 30 -2 40 0 9 3 -1 5 -23 4 -22 0 -30 -2 -17 -4z"/>
<path d="M9864 4076 c-38 -35 -66 -67 -63 -70 3 -4 37 22 75 58 38 35 66 67
63 70 -3 3 -37 -23 -75 -58z"/>
<path d="M7440 4109 c-13 -24 -4 -41 10 -19 10 16 13 40 5 40 -2 0 -9 -9 -15
-21z"/>
<path d="M7261 4061 c-12 -29 -21 -60 -19 -69 2 -10 14 9 26 42 29 75 23 96
-7 27z"/>
<path d="M8722 4061 c-6 -19 -12 -43 -11 -55 0 -16 4 -13 15 13 8 18 14 43 12
55 -3 17 -6 15 -16 -13z"/>
<path d="M8760 4010 c0 -18 4 -29 10 -25 6 3 10 15 10 25 0 10 -4 22 -10 25
-6 4 -10 -7 -10 -25z"/>
<path d="M7696 3989 c-21 -53 -30 -85 -19 -74 14 14 45 97 39 103 -3 3 -12
-10 -20 -29z"/>
<path d="M7288 4004 c-5 -4 -8 -21 -8 -38 1 -26 2 -28 11 -13 11 19 8 63 -3
51z"/>
<path d="M9916 3950 c-47 -50 -53 -60 -37 -60 10 0 80 71 94 95 17 31 -12 13
-57 -35z"/>
<path d="M7490 3960 c-20 -37 -39 -100 -31 -100 9 0 54 111 47 117 -2 3 -10
-5 -16 -17z"/>
<path d="M7950 3935 c-14 -44 -8 -83 7 -45 17 43 24 80 14 80 -5 0 -15 -16
-21 -35z"/>
<path d="M8022 3930 c0 -14 2 -19 5 -12 2 6 2 18 0 25 -3 6 -5 1 -5 -13z"/>
<path d="M8478 3935 c-3 -6 -9 -26 -13 -45 -3 -19 -9 -43 -12 -54 -3 -10 -1
-16 5 -13 12 8 35 92 30 108 -2 7 -7 9 -10 4z"/>
<path d="M8960 3861 c-6 -16 -10 -38 -8 -48 3 -13 9 -8 21 21 19 43 21 56 8
56 -5 0 -14 -13 -21 -29z"/>
<path d="M9910 3844 c-23 -25 -39 -48 -36 -51 3 -4 7 -4 9 -2 2 2 20 25 41 52
49 60 41 61 -14 1z"/>
<path d="M7522 3845 c-7 -14 -12 -29 -12 -33 1 -10 40 38 40 49 0 18 -17 8
-28 -16z"/>
<path d="M9012 3816 c-7 -27 -11 -51 -8 -53 10 -10 27 40 24 70 -3 30 -4 29
-16 -17z"/>
<path d="M8521 3832 c-7 -13 -11 -28 -8 -35 2 -7 9 -2 16 11 7 13 11 28 8 35
-2 7 -9 2 -16 -11z"/>
<path d="M8162 3815 c0 -16 2 -22 5 -12 2 9 2 23 0 30 -3 6 -5 -1 -5 -18z"/>
<path d="M9080 3830 c0 -5 9 -10 20 -10 11 0 20 5 20 10 0 6 -9 10 -20 10 -11
0 -20 -4 -20 -10z"/>
<path d="M7267 3780 c-13 -21 -20 -58 -23 -113 l-4 -82 25 90 c14 50 25 100
23 113 -3 23 -4 22 -21 -8z"/>
<path d="M7140 3780 c0 -19 3 -21 12 -12 9 9 9 15 0 24 -9 9 -12 7 -12 -12z"/>
<path d="M8722 3783 c-5 -10 -13 -33 -17 -50 -11 -52 11 -39 24 13 13 49 9 68
-7 37z"/>
<path d="M6947 3735 c10 -13 22 -25 27 -25 5 0 -1 11 -14 25 -30 32 -36 32
-13 0z"/>
<path d="M7811 3729 c-6 -18 -11 -41 -11 -53 1 -19 2 -19 14 4 19 35 28 80 17
80 -5 0 -14 -14 -20 -31z"/>
<path d="M7392 3727 c-7 -16 -12 -43 -11 -60 1 -30 2 -30 15 13 17 53 13 90
-4 47z"/>
<path d="M8765 3703 c-36 -50 -51 -99 -15 -53 25 33 63 100 56 100 -3 0 -21
-21 -41 -47z"/>
<path d="M9355 3695 c50 -13 103 -28 118 -34 43 -17 68 -13 35 4 -33 18 -183
55 -218 54 -14 0 16 -11 65 -24z"/>
<path d="M7458 3686 c-14 -14 -52 -145 -44 -153 2 -2 18 30 36 71 34 78 37
112 8 82z"/>
<path d="M7864 3665 c-6 -24 0 -44 10 -34 11 11 17 59 7 59 -6 0 -13 -11 -17
-25z"/>
<path d="M7590 3645 c1 -26 2 -28 11 -12 8 14 8 22 0 30 -8 8 -11 3 -11 -18z"/>
<path d="M8888 3568 c-20 -32 -30 -60 -18 -53 13 8 43 65 37 71 -2 3 -11 -6
-19 -18z"/>
<path d="M8366 3555 c-9 -35 -1 -43 14 -15 8 14 8 26 2 32 -6 6 -12 0 -16 -17z"/>
<path d="M9160 3560 c0 -5 16 -10 35 -10 19 0 35 5 35 10 0 6 -16 10 -35 10
-19 0 -35 -4 -35 -10z"/>
<path d="M8022 3540 c0 -14 2 -19 5 -12 2 6 2 18 0 25 -3 6 -5 1 -5 -13z"/>
<path d="M7665 3534 c-12 -12 -15 -26 -11 -48 10 -50 23 -50 35 0 14 54 3 75
-24 48z"/>
<path d="M9335 3541 c6 -6 48 -24 93 -41 61 -22 82 -26 82 -16 0 13 -58 39
-115 51 -16 4 -39 9 -50 12 -14 4 -17 2 -10 -6z"/>
<path d="M8410 3515 c-13 -14 -21 -27 -18 -31 3 -3 16 9 28 25 26 37 22 40
-10 6z"/>
<path d="M7904 3493 c-5 -10 -21 -36 -34 -57 -13 -22 -19 -37 -14 -33 18 11
66 86 62 97 -1 5 -8 2 -14 -7z"/>
<path d="M8577 3475 c-10 -21 -16 -39 -14 -42 8 -7 38 48 35 64 -2 10 -10 2
-21 -22z"/>
<path d="M8916 3486 c-9 -14 -16 -31 -16 -38 0 -7 10 2 21 20 12 18 19 35 17
38 -3 2 -13 -7 -22 -20z"/>
<path d="M9180 3480 c0 -5 9 -10 21 -10 11 0 17 5 14 10 -3 6 -13 10 -21 10
-8 0 -14 -4 -14 -10z"/>
<path d="M8062 3460 c0 -14 2 -19 5 -12 2 6 2 18 0 25 -3 6 -5 1 -5 -13z"/>
<path d="M7287 3434 c35 -48 111 -114 133 -114 22 0 34 31 28 76 -4 26 -5 25
-13 -13 -4 -24 -11 -43 -14 -43 -4 0 -41 28 -82 63 -53 44 -68 53 -52 31z"/>
<path d="M7798 3423 c-29 -34 -30 -48 -2 -21 15 15 26 30 23 33 -3 3 -13 -3
-21 -12z"/>
<path d="M8587 3375 c-9 -19 -13 -35 -9 -35 5 0 16 16 25 35 9 19 13 35 9 35
-5 0 -16 -16 -25 -35z"/>
<path d="M7555 3358 c-8 -21 1 -38 21 -38 18 0 18 11 0 36 -13 17 -15 18 -21
2z"/>
<path d="M8023 3330 c-7 -19 -15 -53 -18 -75 -5 -38 -4 -37 15 15 11 30 19 64
18 75 -3 15 -6 11 -15 -15z"/>
<path d="M8196 3314 c-8 -22 4 -40 15 -23 11 18 11 39 0 39 -5 0 -12 -7 -15
-16z"/>
<path d="M8275 3282 c-41 -53 -53 -82 -35 -82 9 0 64 99 58 105 -2 2 -12 -9
-23 -23z"/>
<path d="M8916 3246 c-15 -26 -26 -50 -23 -52 7 -8 59 74 55 87 -2 7 -17 -9
-32 -35z"/>
<path d="M8651 3183 c-42 -71 -57 -122 -20 -68 30 45 71 126 66 132 -3 2 -24
-26 -46 -64z"/>
<path d="M10310 5628 c0 -20 12 -34 50 -57 51 -31 58 -26 19 15 -42 44 -69 60
-69 42z"/>
<path d="M9400 2701 c0 -5 23 -14 51 -20 55 -12 78 -7 38 7 -41 15 -89 22 -89
13z"/>
<path d="M8482 2543 c26 -27 52 -61 59 -78 13 -33 25 -19 15 19 -7 28 -84 106
-105 106 -9 0 3 -19 31 -47z"/>
<path d="M8477 2445 c3 -16 10 -41 14 -55 7 -24 7 -24 8 5 0 17 -6 41 -14 55
l-15 25 7 -30z"/>
<path d="M3715 1750 c3 -5 15 -10 26 -10 11 0 17 5 14 10 -3 6 -15 10 -26 10
-11 0 -17 -4 -14 -10z"/>
<path d="M5040 1591 c0 -4 11 -13 25 -19 31 -14 35 -15 35 -3 0 5 -13 14 -30
20 -16 5 -30 6 -30 2z"/>
<path d="M4765 1550 c-4 -6 6 -10 22 -10 22 0 25 2 13 10 -19 12 -27 12 -35 0z"/>
<path d="M5235 1530 c-3 -5 3 -10 14 -10 12 0 21 5 21 10 0 6 -6 10 -14 10 -8
0 -18 -4 -21 -10z"/>
<path d="M4580 1510 c0 -5 9 -10 20 -10 11 0 20 5 20 10 0 6 -9 10 -20 10 -11
0 -20 -4 -20 -10z"/>
<path d="M5391 1397 c-6 -8 -8 -17 -4 -20 10 -11 74 -8 139 5 54 11 56 13 29
19 -56 12 -152 10 -164 -4z"/>
<path d="M10893 1333 c9 -2 25 -2 35 0 9 3 1 5 -18 5 -19 0 -27 -2 -17 -5z"/>
<path d="M5463 1313 c15 -2 37 -2 50 0 12 2 0 4 -28 4 -27 0 -38 -2 -22 -4z"/>
<path d="M6146 1305 c10 -8 28 -14 39 -14 18 0 17 1 -5 14 -34 20 -60 20 -34
0z"/>
<path d="M11663 1313 c9 -2 23 -2 30 0 6 3 -1 5 -18 5 -16 0 -22 -2 -12 -5z"/>
<path d="M10700 1300 c0 -10 79 -34 87 -26 3 3 0 12 -7 21 -14 16 -80 21 -80
5z"/>
<path d="M3520 1261 c0 -13 38 -33 53 -28 7 2 -3 11 -20 21 -18 9 -33 12 -33
7z"/>
<path d="M10323 1233 c9 -2 25 -2 35 0 9 3 1 5 -18 5 -19 0 -27 -2 -17 -5z"/>
<path d="M6040 1220 c-11 -7 -4 -10 25 -10 29 0 36 3 25 10 -8 5 -19 10 -25
10 -5 0 -17 -5 -25 -10z"/>
<path d="M6155 1220 c-4 -6 3 -10 14 -10 25 0 27 6 6 13 -8 4 -17 2 -20 -3z"/>
<path d="M4975 1200 c-4 -6 6 -10 22 -10 22 0 25 2 13 10 -19 12 -27 12 -35 0z"/>
<path d="M11090 1200 c18 -12 58 -12 85 0 14 6 3 9 -40 9 -42 1 -56 -2 -45 -9z"/>
<path d="M10765 1192 c-51 -11 -34 -22 35 -22 43 0 70 4 65 9 -12 11 -73 19
-100 13z"/>
<path d="M4865 1180 c-3 -5 3 -10 15 -10 12 0 18 5 15 10 -3 6 -10 10 -15 10
-5 0 -12 -4 -15 -10z"/>
<path d="M11535 1180 c-4 -6 5 -10 20 -10 15 0 24 4 20 10 -3 6 -12 10 -20 10
-8 0 -17 -4 -20 -10z"/>
<path d="M10605 1160 c-3 -5 3 -10 15 -10 12 0 18 5 15 10 -3 6 -10 10 -15 10
-5 0 -12 -4 -15 -10z"/>
<path d="M10505 1140 c-3 -5 3 -10 14 -10 12 0 21 5 21 10 0 6 -6 10 -14 10
-8 0 -18 -4 -21 -10z"/>
<path d="M4668 1131 c-79 -9 -84 -21 -7 -20 60 1 144 15 107 18 -9 0 -22 3
-30 4 -7 2 -39 1 -70 -2z"/>
<path d="M4210 1120 c0 -5 11 -10 24 -10 14 0 28 5 31 10 4 6 -7 10 -24 10
-17 0 -31 -4 -31 -10z"/>
<path d="M10380 1120 c0 -5 9 -10 20 -10 11 0 20 5 20 10 0 6 -9 10 -20 10
-11 0 -20 -4 -20 -10z"/>
<path d="M4040 1100 c0 -5 9 -10 20 -10 11 0 20 5 20 10 0 6 -9 10 -20 10 -11
0 -20 -4 -20 -10z"/>
<path d="M10272 1080 c14 -4 91 -13 170 -20 78 -7 147 -16 151 -20 4 -3 -18
-12 -48 -19 -31 -7 -55 -14 -53 -16 2 -2 64 1 138 6 74 5 159 6 189 3 50 -6
70 1 71 27 0 4 -46 9 -102 13 -57 4 -170 14 -252 22 -163 15 -310 18 -264 4z"/>
<path d="M5505 1071 c-61 -4 -120 -13 -132 -19 -12 -7 -43 -12 -70 -12 -31 0
-60 -7 -82 -21 -35 -21 -37 -38 -3 -20 30 16 82 14 82 -3 0 -7 -18 -26 -41
-40 -60 -40 -40 -43 22 -3 127 79 189 90 554 93 401 2 391 2 379 14 -14 14
-554 22 -709 11z"/>
<path d="M10955 1060 c-17 -4 55 -8 165 -8 107 0 204 3 215 8 25 11 -338 11
-380 0z"/>
<path d="M11500 1040 c0 -5 9 -10 20 -10 11 0 20 5 20 10 0 6 -9 10 -20 10
-11 0 -20 -4 -20 -10z"/>
<path d="M3260 1004 c-144 -27 -143 -27 -135 -15 12 21 -79 24 -346 12 -328
-13 -500 -28 -514 -44 -7 -8 -65 -13 -180 -14 -112 -1 -194 -6 -240 -17 -68
-15 -63 -15 185 -10 140 3 287 9 325 14 39 5 163 14 277 19 152 7 215 14 237
25 34 18 156 22 166 6 3 -5 -2 -10 -12 -10 -10 -1 -34 -9 -53 -20 -60 -32 -15
-32 135 -1 205 43 233 45 300 26 42 -13 76 -16 122 -11 41 4 63 3 63 -4 0 -5
-4 -10 -10 -10 -5 0 -10 -7 -10 -15 0 -20 65 -20 232 1 71 8 138 14 149 12
l21 -3 -21 -26 c-24 -31 -19 -39 23 -39 29 1 30 1 12 15 -19 14 -18 15 7 36
15 11 25 25 22 30 -8 12 -106 10 -232 -4 -85 -10 -100 -10 -90 1 17 21 -4 28
-100 35 -56 4 -91 12 -103 22 -23 21 -80 18 -230 -11z"/>
<path d="M4865 990 c-73 -20 -223 -40 -299 -40 -35 0 -52 -7 -84 -33 -37 -31
-126 -66 -138 -55 -2 3 20 24 51 47 62 47 68 61 27 61 -31 0 -53 -16 -46 -34
8 -22 -30 -44 -116 -69 -156 -45 -251 -56 -431 -50 -91 3 -179 1 -199 -4 -29
-8 -12 -11 95 -16 154 -8 225 -17 225 -28 0 -5 -6 -9 -12 -9 -21 0 -261 -120
-255 -127 4 -3 30 5 59 17 41 18 78 24 161 28 107 5 150 21 60 23 -27 1 -59 4
-73 8 -20 6 -12 10 50 29 187 54 288 66 318 36 20 -20 90 -14 177 16 59 20 74
17 75 -17 0 -40 104 -45 149 -8 l30 26 11 -21 c6 -12 9 -28 6 -36 -5 -12 -1
-14 17 -9 60 18 198 71 247 95 30 15 87 37 125 50 67 21 103 40 78 40 -27 0
-181 -54 -234 -82 -69 -36 -135 -46 -190 -28 -34 12 -47 11 -91 -3 -55 -17
-72 -13 -83 24 -11 33 -47 32 -155 -6 -105 -36 -130 -38 -130 -11 0 20 31 36
72 36 33 0 84 22 147 62 29 18 55 23 180 29 145 7 191 17 223 45 9 9 27 14 40
12 18 -2 23 -9 24 -33 0 -24 4 -29 20 -27 27 5 29 10 12 29 -8 10 -18 26 -21
36 -8 21 -33 21 -122 -3z"/>
<path d="M10187 981 c-37 -3 -67 -10 -67 -16 0 -13 217 -11 250 3 22 10 20 11
-25 12 -27 0 -59 2 -70 4 -11 1 -50 0 -88 -3z"/>
<path d="M10955 970 c-4 -6 32 -9 102 -9 98 2 102 3 48 9 -89 11 -143 11 -150
0z"/>
<path d="M4180 954 c-25 -14 -24 -14 13 -8 33 6 37 4 37 -15 0 -16 6 -21 28
-21 15 1 41 7 57 15 l30 13 -32 1 c-22 1 -33 6 -33 16 0 20 -66 20 -100 -1z"/>
<path d="M5088 959 c-10 -5 -18 -14 -18 -19 0 -6 8 -10 18 -10 18 1 52 22 52
34 0 9 -33 7 -52 -5z"/>
<path d="M10440 941 c14 -4 53 -11 85 -15 48 -5 56 -4 41 5 -10 6 -48 13 -85
15 -45 3 -58 1 -41 -5z"/>
<path d="M11293 943 c15 -2 37 -2 50 0 12 2 0 4 -28 4 -27 0 -38 -2 -22 -4z"/>
<path d="M4070 918 c-20 -9 -22 -12 -8 -15 9 -2 29 3 45 11 23 12 24 15 8 15
-11 0 -31 -5 -45 -11z"/>
<path d="M11463 923 c9 -2 25 -2 35 0 9 3 1 5 -18 5 -19 0 -27 -2 -17 -5z"/>
<path d="M9980 912 c0 -6 9 -14 21 -17 28 -9 20 -15 -53 -36 -35 -11 -49 -17
-32 -15 18 3 150 10 295 16 145 7 323 15 394 19 l130 8 -140 2 c-130 2 -335
12 -532 27 -56 5 -83 3 -83 -4z"/>
<path d="M1663 883 c9 -2 23 -2 30 0 6 3 -1 5 -18 5 -16 0 -22 -2 -12 -5z"/>
<path d="M3218 883 c23 -2 59 -2 80 0 20 2 1 4 -43 4 -44 0 -61 -2 -37 -4z"/>
<path d="M3463 883 c15 -2 39 -2 55 0 15 2 2 4 -28 4 -30 0 -43 -2 -27 -4z"/>
<path d="M3713 883 c20 -2 54 -2 75 0 20 2 3 4 -38 4 -41 0 -58 -2 -37 -4z"/>
<path d="M10930 869 c-23 -4 -8 -7 45 -7 80 0 91 4 25 10 -19 2 -51 0 -70 -3z"/>
<path d="M1513 863 c9 -2 23 -2 30 0 6 3 -1 5 -18 5 -16 0 -22 -2 -12 -5z"/>
<path d="M3033 863 c9 -2 25 -2 35 0 9 3 1 5 -18 5 -19 0 -27 -2 -17 -5z"/>
<path d="M2918 843 c6 -2 18 -2 25 0 6 3 1 5 -13 5 -14 0 -19 -2 -12 -5z"/>
<path d="M11263 843 c9 -2 23 -2 30 0 6 3 -1 5 -18 5 -16 0 -22 -2 -12 -5z"/>
<path d="M2833 823 c9 -2 23 -2 30 0 6 3 -1 5 -18 5 -16 0 -22 -2 -12 -5z"/>
<path d="M2719 806 c-47 -13 -92 -35 -73 -36 18 0 119 31 129 41 12 12 2 11
-56 -5z"/>
<path d="M3461 789 c-24 -5 -47 -11 -50 -15 -10 -11 113 6 123 16 12 12 -10
11 -73 -1z"/>
<path d="M9997 788 c16 -8 32 -8 55 0 32 9 31 10 -22 10 -46 1 -52 -1 -33 -10z"/>
<path d="M3185 730 c-3 -5 3 -10 14 -10 12 0 21 5 21 10 0 6 -6 10 -14 10 -8
0 -18 -4 -21 -10z"/>
<path d="M9982 733 c37 -2 100 -2 140 0 40 1 10 3 -67 3 -77 0 -110 -1 -73 -3z"/>
<path d="M4090 710 c0 -5 11 -10 25 -10 14 0 25 5 25 10 0 6 -11 10 -25 10
-14 0 -25 -4 -25 -10z"/>
<path d="M8870 710 c0 -5 11 -10 25 -10 14 0 25 5 25 10 0 6 -11 10 -25 10
-14 0 -25 -4 -25 -10z"/>
<path d="M9395 650 c3 -5 13 -10 21 -10 8 0 14 5 14 10 0 6 -9 10 -21 10 -11
0 -17 -4 -14 -10z"/>
<path d="M9233 633 c9 -2 25 -2 35 0 9 3 1 5 -18 5 -19 0 -27 -2 -17 -5z"/>
<path d="M8208 553 c-10 -2 -18 -9 -18 -14 0 -5 8 -9 18 -9 28 0 62 12 62 21
0 9 -31 10 -62 2z"/>
<path d="M7800 342 c0 -12 50 -22 104 -21 35 1 37 2 16 8 -48 15 -120 22 -120
13z"/>
<path d="M8040 285 c0 -6 56 -35 67 -35 14 1 -39 40 -53 40 -8 0 -14 -2 -14
-5z"/>
<path d="M7493 259 c10 -6 53 -12 95 -14 l77 -4 -65 14 c-36 8 -78 14 -95 14
-26 0 -27 -1 -12 -10z"/>
<path d="M7756 220 c14 -14 74 -31 74 -20 0 4 -14 13 -31 19 -41 14 -56 14
-43 1z"/>
<path d="M5425 200 c-7 -12 118 -12 185 -1 36 7 23 9 -67 10 -65 0 -114 -3
-118 -9z"/>
<path d="M5723 183 c9 -2 23 -2 30 0 6 3 -1 5 -18 5 -16 0 -22 -2 -12 -5z"/>
<path d="M7898 183 c6 -2 18 -2 25 0 6 3 1 5 -13 5 -14 0 -19 -2 -12 -5z"/>
<path d="M5822 161 c9 -6 38 -14 65 -17 36 -4 44 -3 31 5 -9 6 -38 14 -65 17
-36 4 -44 3 -31 -5z"/>
<path d="M7250 155 c69 -8 138 -20 153 -26 15 -7 30 -9 33 -7 3 3 -14 13 -38
23 -30 12 -78 18 -158 21 l-115 3 125 -14z"/>
<path d="M6690 115 c65 -17 238 -38 272 -33 54 9 -88 39 -207 43 l-120 4 55
-14z"/>
<path d="M5998 3 c6 -2 18 -2 25 0 6 3 1 5 -13 5 -14 0 -19 -2 -12 -5z"/>
</g>
</svg>
